<svg width="146" height="96" viewBox="0 0 146 96" fill="none" xmlns="http://www.w3.org/2000/svg">
  <g clip-path="url(#clip0_115_388)">
    <path
      d="M0 0L69.0441 16.5423L69.0565 17.8633C69.0565 17.8633 66.4688 17.4502 66.2423 17.4975L48.2468 49.9704L30.94 17.5921L18.9295 17.4975V75.5074C21.6288 75.7407 25.805 76.2451 28.4051 75.8353C29.038 75.7344 29.491 75.6776 29.7237 74.9683L30.0992 38.936L30.7973 39.3395L43.7324 64.9616L51.5077 65.2579L65.9321 36.4106L66.1213 76.6392L0 96V0Z"
      fill="#148BEF"
    />
    <path
      d="M134.812 76.7684C134.489 76.6927 133.968 77.0963 133.788 76.7684L128.765 61.4746L109.047 61.2949L103.471 76.7684H92.1467L113.838 18.6514H123.316L145.997 76.7684H134.809H134.812ZM126.869 53.4037L118.991 31.0573L110.775 53.4226L126.866 53.4068L126.869 53.4037Z"
      fill="#148BEF"
    />
    <path
      d="M88.7368 32.9458V76.7685H77.7285C77.9581 62.4362 77.7068 47.3127 77.7285 32.9458H88.7368Z"
      fill="#148BEF"
    />
    <path
      d="M88.7368 14.9753H77.7285V26.3251H88.7368V14.9753Z"
      fill="#148BEF"
    />
  </g>

  <defs>
    <clipPath id="clip0_115_388">
      <rect width="146" height="96" fill="white" />
    </clipPath>
  </defs>
</svg>