<svg width="178" height="56" viewBox="0 0 178 56" fill="none" xmlns="http://www.w3.org/2000/svg">
<path d="M66.2439 25.4459C65.2446 23.5343 63.8722 22.0342 62.1268 20.9456C60.3813 19.857 58.3504 19.3139 56.0339 19.3139C55.0506 19.3139 54.1226 19.4454 53.2499 19.7086C52.3772 19.9718 51.5851 20.3594 50.8713 20.8714C50.1574 21.3834 49.5633 21.9839 49.0867 22.6754H48.9439V9.17432H41.5661V32.1211C41.5661 34.8916 42.1049 37.3129 43.1849 39.392C44.2626 41.4687 45.7869 43.0693 47.7534 44.189C49.7199 45.3087 52.0203 45.8709 54.6546 45.8709C56.7178 45.8709 58.5484 45.5408 60.1534 44.8828C61.756 44.2249 63.1192 43.275 64.2475 42.0381C65.3735 40.8012 66.2393 39.3417 66.8426 37.6622C67.4459 35.9802 67.7476 34.1499 67.7476 32.1737C67.7476 29.6017 67.2479 27.3599 66.2486 25.4483L66.2439 25.4459ZM59.5339 36.0041C59.0734 37.0114 58.431 37.8009 57.6066 38.3775C56.7822 38.9541 55.799 39.2436 54.6546 39.2436C53.5101 39.2436 52.52 38.9541 51.6795 38.3775C50.839 37.8009 50.1966 37.009 49.7521 36.0041C49.3077 34.9993 49.0867 33.87 49.0867 32.6163C49.0867 31.3626 49.3077 30.2429 49.7521 29.2524C50.1966 28.2643 50.839 27.4796 51.6795 26.903C52.52 26.3264 53.5124 26.0369 54.6546 26.0369C55.7967 26.0369 56.7799 26.3264 57.6066 26.903C58.431 27.4796 59.0734 28.2619 59.5339 29.2524C59.9945 30.2405 60.2247 31.3626 60.2247 32.6163C60.2247 33.87 59.9945 34.9993 59.5339 36.0041Z" fill="white"/>
<path d="M39.6798 43.8664H32.3688V30.1787C32.074 30.5352 20.9152 44.0195 21.0419 43.8664H14.8431V31.6071C14.249 32.4756 6.75607 43.4142 6.44751 43.8664H0V18.5415H7.45838V29.3174L13.4246 20.6086C14.3135 19.3119 15.7503 18.5415 17.2816 18.5415C19.8975 18.5415 22.0182 20.745 22.0182 23.4629V31.064L30.9549 20.2617C31.853 19.1755 33.1609 18.551 34.5379 18.5487H34.9363C37.5544 18.5439 39.6798 20.7474 39.6798 23.4677V43.8664Z" fill="white"/>
<path d="M80.4406 6.52979C80.2463 7.25942 79.767 7.96138 79.394 8.62434C77.3939 12.1794 72.6444 18.7143 72.7039 22.5904C72.7762 27.2954 76.8918 31.2906 81.6082 31.2906H86.3684L81.5165 39.7965L86.3711 48.515L86.7395 48.4036C88.8901 44.1549 91.7969 40.1201 93.9437 35.897C95.5111 32.8137 95.9706 30.235 94.3387 27.0075C93.2733 24.9002 90.161 22.3194 87.7156 22.3194H81.698L90.9488 6.52979H80.4406Z" fill="#148BEF"/>
<path d="M107.876 45.5441C105.881 45.5441 104.173 45.1209 102.752 44.2746C101.362 43.398 100.304 42.1889 99.5785 40.6474C98.853 39.1058 98.4903 37.3073 98.4903 35.2519V20.2444H105.291V34.7078C105.291 35.6448 105.473 36.4761 105.835 37.2015C106.228 37.8967 106.772 38.4408 107.468 38.8338C108.163 39.2267 108.949 39.4232 109.825 39.4232C110.732 39.4232 111.518 39.2267 112.183 38.8338C112.878 38.4408 113.407 37.8967 113.77 37.2015C114.163 36.4761 114.359 35.6448 114.359 34.7078V20.2444H121.16V45H114.813V40.1033L115.175 41.1914C114.601 42.6725 113.664 43.7758 112.364 44.5013C111.095 45.1965 109.599 45.5441 107.876 45.5441ZM125.224 45V20.2444H132.025V45H125.224ZM125.224 18.0227V11.2217H132.025V18.0227H125.224ZM148.02 45.272C145.027 45.272 142.7 44.471 141.037 42.869C139.405 41.2368 138.589 38.9698 138.589 36.068V26.1386H134.418V20.2444H134.644C135.914 20.2444 136.881 19.927 137.546 19.2922C138.241 18.6575 138.589 17.7053 138.589 16.4358V14.6222H145.39V20.2444H151.193V26.1386H145.39V35.6146C145.39 36.461 145.541 37.1713 145.843 37.7456C146.146 38.2897 146.614 38.6977 147.249 38.9698C147.884 39.2418 148.67 39.3778 149.607 39.3778C149.818 39.3778 150.06 39.3627 150.332 39.3325C150.604 39.3023 150.891 39.272 151.193 39.2418V45C150.74 45.0605 150.226 45.1209 149.652 45.1814C149.078 45.2418 148.534 45.272 148.02 45.272ZM166.196 45.5441C163.567 45.5441 161.285 44.9698 159.35 43.8212C157.416 42.6423 155.919 41.0705 154.861 39.1058C153.803 37.1411 153.275 34.9647 153.275 32.5768C153.275 30.0983 153.819 27.8917 154.907 25.9572C156.025 24.0227 157.521 22.4962 159.395 21.3779C161.269 20.2595 163.385 19.7003 165.743 19.7003C167.708 19.7003 169.446 20.0177 170.957 20.6524C172.468 21.257 173.738 22.1184 174.766 23.2368C175.824 24.3552 176.625 25.6549 177.169 27.136C177.713 28.5869 177.985 30.1738 177.985 31.8967C177.985 32.3804 177.955 32.864 177.894 33.3476C177.864 33.801 177.788 34.194 177.667 34.5265H159.123V29.5391H173.814L170.594 31.8967C170.897 30.597 170.882 29.4484 170.549 28.4509C170.217 27.4232 169.627 26.6222 168.781 26.0479C167.965 25.4433 166.952 25.1411 165.743 25.1411C164.564 25.1411 163.552 25.4282 162.705 26.0025C161.859 26.5768 161.224 27.4232 160.801 28.5416C160.378 29.66 160.212 31.0202 160.302 32.6222C160.181 34.0126 160.348 35.2368 160.801 36.2947C161.254 37.3527 161.95 38.1839 162.887 38.7884C163.824 39.3627 164.957 39.6499 166.287 39.6499C167.496 39.6499 168.524 39.4081 169.37 38.9244C170.247 38.4408 170.927 37.7758 171.411 36.9295L176.851 39.5139C176.368 40.7229 175.597 41.7809 174.539 42.6877C173.511 43.5945 172.287 44.3048 170.866 44.8186C169.446 45.3023 167.889 45.5441 166.196 45.5441Z" fill="white"/>
</svg>
