<svg xmlns="http://www.w3.org/2000/svg" width="2362" height="1118" viewBox="0 0 2362 1118" fill="none"><g clip-path="url(#clip0_750_373)"><path d="M-604.85 765.94C-329.53 676.33 -88.3301 155.51 65.3999 895.66C119.47 1156.01 394.45 1830.95 611.33 1803.68M-575.87 731.01C-295.6 644.28 -43.0801 132.63 114.33 862.72C136.96 967.66 186.28 1129.69 260.84 1278C383.72 1522.43 536.47 1791.36 668.77 1783.45M-546.89 696.08C-261.68 612.23 2.87996 109.64 163.27 829.78C188.11 941.33 234.77 1107.81 315.51 1248.06C448.49 1479.03 596.58 1762.07 726.23 1763.22M-517.92 661.15C-227.77 580.19 49.3999 86.55 212.2 796.84C239.28 915 283.18 1085.85 370.17 1218.12C513.15 1435.52 656.68 1732.77 783.67 1742.99M-488.94 626.21C-193.85 548.13 96.4299 63.36 261.14 763.89C290.48 888.67 331.52 1063.81 424.84 1188.17C577.69 1391.88 716.8 1703.47 841.13 1722.75M-459.97 591.28C-159.94 516.08 143.86 40.1 310.06 730.95C341.67 862.35 379.76 1041.71 479.49 1158.23C642.06 1348.17 776.89 1674.18 898.57 1702.52M-430.99 556.35C-126.02 484.03 191.65 16.77 359 698.01C392.91 836.02 427.9 1019.56 534.16 1128.3C706.27 1304.42 837.01 1644.9 956.02 1682.3M-402.02 521.42C-92.1101 451.99 239.73 -6.62006 407.93 665.07C444.15 809.7 475.91 997.39 588.81 1098.36C770.26 1260.63 897.1 1615.61 1013.46 1662.07M-373.04 486.49C-58.1801 419.94 288.08 -30.07 456.87 632.13C495.42 783.38 523.82 975.22 643.48 1068.42C834.07 1216.85 957.22 1586.32 1070.91 1641.84M-344.06 451.56C-24.2601 387.89 336.66 -53.5701 505.81 599.19C546.72 757.05 571.6 953.07 698.15 1038.48C897.69 1173.14 1017.33 1557.02 1128.37 1621.6M-315.09 416.63C9.6499 355.84 385.43 -77.11 554.73 566.25C598.01 730.72 619.25 930.97 752.8 1008.54C961.1 1129.52 1077.43 1527.73 1185.81 1601.37M-286.11 381.7C43.5699 323.8 434.39 -100.69 603.67 533.31C649.35 704.39 666.82 908.94 807.47 978.6C1024.38 1086.02 1137.54 1498.44 1243.26 1581.14M-257.14 346.77C77.4799 291.75 483.49 -124.31 652.6 500.37C700.7 678.05 714.3 887 862.13 948.66C1087.52 1042.67 1197.65 1469.15 1300.71 1560.91M-228.16 311.84C111.4 259.7 532.74 -147.97 701.54 467.43C752.09 651.71 761.73 865.16 916.8 918.72C1150.58 999.47 1257.76 1439.86 1358.17 1540.68M-199.19 276.9C145.31 227.64 582.1 -171.66 750.47 434.48C803.49 625.35 809.12 843.42 971.45 888.77C1213.56 956.41 1317.86 1410.55 1415.6 1520.44M-170.21 241.97C179.24 195.6 631.59 -195.38 799.4 401.54C854.91 599 856.49 821.78 1026.11 858.83C1276.53 913.52 1377.96 1381.26 1473.05 1500.21M-141.24 207.04C213.15 163.55 681.16 -219.12 848.33 368.6C906.37 572.63 903.86 800.25 1080.77 828.89C1339.5 870.78 1438.06 1351.97 1530.5 1479.98M-112.26 172.11C247.07 131.5 730.83 -242.88 897.27 335.66C957.86 546.26 951.25 778.81 1135.44 798.95C1402.5 828.16 1498.18 1322.68 1587.95 1459.75M-83.2802 137.18C280.99 99.4501 780.58 -266.67 946.21 302.72C1009.38 519.88 998.67 757.45 1190.11 769.01C1465.55 785.65 1558.29 1293.39 1645.41 1439.52M-54.3101 102.25C314.9 67.41 830.4 -290.48 995.14 269.78C1060.92 493.49 1047 720.13 1244.77 739.07C1527.37 766.14 1618.4 1264.1 1702.85 1419.29M-25.3301 67.32C348.82 35.36 880.29 -314.32 1044.07 236.84C1112.49 467.1 1093.75 699.27 1299.42 709.13C1591.55 723.14 1678.49 1234.8 1760.29 1399.06M3.63989 32.39C382.73 3.31001 930.24 -338.17 1093 203.9C1164.1 440.69 1141.12 693.76 1354.08 679.19C1654.98 658.62 1738.6 1205.51 1817.74 1378.83M32.6199 -2.53992C416.66 -28.7399 980.25 -362.04 1141.94 170.96C1215.75 414.27 1188.69 672.62 1408.75 649.25C1718.26 616.39 1798.71 1176.22 1875.19 1358.6M61.5899 -37.48C450.57 -60.79 1030.3 -385.93 1190.87 138.01C1267.43 387.83 1236.3 651.5 1463.41 619.3C1781.59 574.19 1858.82 1146.92 1932.64 1338.36M90.5699 -72.41C484.49 -92.84 1080.4 -409.84 1239.81 105.07C1319.16 361.38 1283.96 630.42 1518.08 589.37C1844.99 532.04 1918.93 1117.64 1990.1 1318.14M119.54 -107.34C518.4 -124.89 1130.54 -433.76 1288.73 72.13C1370.91 334.92 1331.64 609.36 1572.73 559.43C1908.43 489.9 1979.03 1088.34 2047.53 1297.91M148.52 -142.27C552.32 -156.94 1180.73 -457.7 1337.67 39.19C1422.72 308.45 1379.37 588.31 1627.4 529.49C1971.94 447.78 2039.14 1059.05 2104.99 1277.68M177.5 -177.2C586.24 -188.98 1230.96 -481.65 1386.61 6.25C1474.57 281.96 1427.14 567.27 1682.06 499.55C2035.49 405.66 2099.24 1029.76 2162.43 1257.45M206.47 -212.13C620.15 -221.03 1281.21 -505.62 1435.54 -26.69C1526.46 255.46 1474.92 546.23 1736.72 469.61C2099.09 363.55 2159.35 1000.47 2219.88 1237.22M235.45 -247.06C654.08 -253.08 1331.5 -529.6 1484.48 -59.63C1578.41 228.94 1522.75 525.2 1791.39 439.67C2162.73 321.44 2219.46 971.18 2277.34 1216.99M264.42 -281.99C687.99 -285.13 1381.81 -553.6 1533.4 -92.57C1630.39 202.4 1570.58 504.17 1846.04 409.73C2226.4 279.32 2279.56 941.88 2334.77 1196.75M293.4 -316.92C721.91 -317.17 1432.15 -577.61 1582.34 -125.51C1682.45 175.83 1618.45 483.14 1900.71 379.79C2290.11 237.2 2339.67 912.59 2392.23 1176.52M322.37 -351.86C755.82 -349.23 1482.51 -601.64 1631.27 -158.46C1734.55 149.24 1666.33 462.1 1955.37 349.84C2353.85 195.07 2399.78 883.29 2449.68 1156.28M351.35 -386.79C789.74 -381.28 1532.9 -625.69 1680.21 -191.41C1786.73 122.62 1714.25 441.05 2010.03 319.89C2417.62 152.93 2459.88 853.99 2507.12 1136.04M380.33 -421.72C823.66 -413.33 1583.31 -649.74 1729.15 -224.35C1838.97 95.99 1762.18 420.01 2064.7 289.95C2481.42 110.8 2520 824.7 2564.58 1115.81M409.3 -456.65C857.57 -445.37 1633.74 -673.81 1778.07 -257.29C1891.26 69.34 1810.1 398.96 2119.35 260.01C2545.22 68.66 2580.09 795.41 2622.02 1095.58M438.28 -491.58C891.5 -477.42 1684.18 -697.9 1827.01 -290.23C1943.63 42.65 1858.06 377.91 2174.02 230.07C2609.07 26.51 2640.21 766.11 2679.47 1075.35M467.25 -526.51C925.41 -509.47 1734.64 -722 1875.94 -323.17C1996.08 15.93 1906.02 356.86 2228.68 200.13C2672.92 -15.65 2700.31 736.82 2736.92 1055.12M496.23 -561.44C959.33 -541.52 1785.12 -746.11 1924.88 -356.11C2048.62 -10.8199 1954 335.8 2283.35 170.19C2736.8 -57.82 2760.43 707.53 2794.37 1034.89M525.2 -596.37C993.24 -573.56 1835.6 -770.25 1973.81 -389.05C2101.23 -37.5999 2001.98 314.73 2338.01 140.25C2800.69 -99.9899 2820.53 678.24 2851.82 1014.66M554.18 -631.3C1027.16 -605.61 1886.1 -794.4 2022.74 -421.99C2153.93 -64.43 2050.17 294.02 2392.66 110.31C2864.84 -141.68 2880.62 648.95 2909.26 994.43M583.15 -666.23C1061.07 -637.66 1936.61 -818.56 2071.67 -454.93C2206.73 -91.3 2097.97 272.58 2447.32 80.37C2928.49 -184.36 2940.73 619.65 2966.7 974.2" stroke="#3AA5FF" stroke-linejoin="round" stroke-dasharray="2 3"></path></g><defs><clipPath id="clip0_750_373"><rect width="2362" height="1118" rx="20" transform="matrix(1 0 0 -1 0 1118)" fill="white"></rect></clipPath></defs></svg>