<svg width="146" height="146" viewBox="0 0 146 146" fill="none" xmlns="http://www.w3.org/2000/svg">
<rect width="146" height="146" fill="#FFF7DF"/>
<path d="M115.14 73.9556C115.14 70.4201 114.853 67.8401 114.232 65.1646H73.86V81.1221H97.5576C97.08 85.0878 94.5 91.0601 88.7665 95.0732L88.6862 95.6074L101.451 105.496L102.335 105.585C110.458 98.0833 115.14 87.0466 115.14 73.9556Z" fill="#4285F4"/>
<path d="M73.86 116C85.4698 116 95.2164 112.178 102.335 105.584L88.7665 95.073C85.1355 97.6053 80.262 99.373 73.86 99.373C62.4889 99.373 52.8379 91.8722 49.3976 81.5044L48.8933 81.5472L35.6201 91.8195L35.4465 92.302C42.5176 106.349 57.042 116 73.86 116Z" fill="#34A853"/>
<path d="M49.3976 81.5043C48.4898 78.8288 47.9645 75.9619 47.9645 72.9998C47.9645 70.0374 48.4898 67.1709 49.3498 64.4954L49.3258 63.9255L35.8863 53.4883L35.4465 53.6974C32.5322 59.5264 30.86 66.0721 30.86 72.9998C30.86 79.9276 32.5322 86.4729 35.4465 92.3019L49.3976 81.5043Z" fill="#FBBC05"/>
<path d="M73.86 46.6266C81.9343 46.6266 87.3808 50.1143 90.4865 53.029L102.622 41.18C95.1689 34.2522 85.4698 30 73.86 30C57.042 30 42.5176 39.651 35.4465 53.6976L49.3498 64.4955C52.8379 54.1278 62.4889 46.6266 73.86 46.6266Z" fill="#EB4335"/>
</svg>
