<svg width="146" height="146" viewBox="0 0 146 146" fill="none" xmlns="http://www.w3.org/2000/svg">
<rect width="146" height="146" fill="#EBF7EE"/>
<path d="M95.4653 63.6238C100.513 60.56 107.087 62.168 110.147 67.2154C113.211 72.2628 111.603 78.8369 106.555 81.8972C106.421 81.9786 106.286 82.0566 106.152 82.1309L50.4673 114.197C45.4199 117.261 38.8459 115.653 35.782 110.605C32.7182 105.558 34.3262 98.9839 39.3736 95.9201C39.5082 95.8386 39.6428 95.7607 39.7774 95.6863L95.4653 63.6238Z" fill="#81C995"/>
<path d="M55.4545 40.7563C55.4792 34.8659 50.7223 30.0664 44.8319 30.0416C44.0739 30.0381 43.3194 30.116 42.5756 30.2719C37.5849 31.4974 34.096 36.0029 34.1668 41.1459V104.835L55.4332 105.221L55.4545 40.7563Z" fill="#34A853"/>
<path d="M95.7062 82.1697C100.853 84.8369 107.186 83.1296 110.296 78.2345C113.285 73.2049 111.631 66.7017 106.601 63.7122C106.563 63.691 106.527 63.6697 106.488 63.6449L50.4319 31.5222C45.4412 28.5079 38.9487 30.1089 35.9308 35.0997C35.8565 35.2236 35.7821 35.3511 35.7112 35.4787C32.7501 40.5473 34.4574 47.0611 39.526 50.0258C39.5614 50.047 39.5968 50.0647 39.6323 50.086L95.7062 82.1697Z" fill="#5BB974"/>
<path d="M106.12 82.2443L55.4368 110.556V86.2362L95.653 63.8116C100.984 60.8575 107.703 62.7844 110.657 68.1187C110.933 68.6146 111.167 69.1317 111.362 69.663C112.871 74.5687 110.668 79.857 106.12 82.2443Z" fill="#81C995"/>
<path d="M44.8213 116C50.6938 116 55.4545 111.239 55.4545 105.367C55.4545 99.494 50.6938 94.7334 44.8213 94.7334C38.9487 94.7334 34.1881 99.494 34.1881 105.367C34.1881 111.239 38.9487 116 44.8213 116Z" fill="#1E8E3E"/>
</svg>
