<svg width="146" height="146" viewBox="0 0 146 146" fill="none" xmlns="http://www.w3.org/2000/svg">
<rect width="146" height="146" transform="matrix(-1 0 0 1 146 0)" fill="#E6F3FF"/>
<path d="M101.126 40.2441L96.8838 44.4443L96.1045 45.2148L96.9434 45.9199C104.626 52.378 109.014 61.5811 109.014 71.167C109.014 77.2285 107.292 83.1895 104.029 88.4053C102.862 90.2712 103.447 92.7175 105.322 93.8672H105.323C107.193 95.0121 109.65 94.446 110.813 92.5859C114.859 86.1186 117 78.7119 117 71.167C117 59.3818 111.704 48.1299 102.482 40.1973L101.782 39.5947L101.126 40.2441Z" fill="#266CC9" stroke="#266CC9" stroke-width="2"/>
<path d="M44.3528 40.3389C35.2339 48.263 30.0003 59.4558 30.0002 71.167C30.0002 78.7304 32.1507 86.1525 36.2151 92.6309C36.9266 93.765 38.1195 94.4155 39.3596 94.4922L39.6077 94.5C40.3259 94.5002 41.0534 94.3073 41.7073 93.9053C43.5813 92.7533 44.1642 90.3069 42.9944 88.4424C39.7164 83.2174 37.9866 77.2435 37.9866 71.167C37.9866 61.6422 42.323 52.4886 49.9192 46.0371L50.7542 45.3281L49.9719 44.5615L46.009 40.6748V38.9004L44.3528 40.3389Z" fill="#3DA641" stroke="#3DA641" stroke-width="2"/>
<path d="M73.5 29.5C63.0016 29.5 52.8346 33.1882 44.8721 39.8906L44.3535 40.3389L43.5361 41.0488L44.3096 41.8076L48.5723 45.9893L49.2246 46.6289L49.9199 46.0361C50.0312 45.9414 49.9591 46.0012 50.0381 45.9346L50.6543 45.4277C57.0773 40.2634 65.1811 37.4249 73.5 37.4248C82.0843 37.4248 90.3959 40.4313 96.9033 45.8848C96.9033 45.8848 96.9038 45.8854 96.9053 45.8867C96.9073 45.8885 96.9093 45.8902 96.9131 45.8936C96.9192 45.8989 96.9305 45.9091 96.9434 45.9199L97.6416 46.5078L98.291 45.8652L102.533 41.666L103.304 40.9033L102.481 40.1963C102.362 40.0939 102.207 39.9567 102.065 39.8379H102.064C94.1125 33.1702 83.9983 29.5 73.5 29.5Z" fill="#FEAD04" stroke="#FEAD04" stroke-width="2"/>
<path d="M90.7588 54.9995C91.8118 53.8549 93.2933 54.0494 94.1602 54.7515V54.7524C94.9673 55.4075 95.4607 56.6717 94.7939 57.8853L94.7881 57.897L94.7812 57.9077L94.6621 58.1001L94.6504 58.1187L94.6396 58.1304L94.6406 58.1313L74.5283 86.8901C74.008 88.4619 72.7442 89.7578 71.0244 90.23C68.2777 90.9842 65.458 89.3446 64.7061 86.606C64.0735 84.3019 65.0965 81.9231 67.0723 80.7759L90.7588 55.0005V54.9995ZM71.7129 84.6831C71.3929 83.5176 70.207 82.8489 69.082 83.1577C67.9578 83.4668 67.2788 84.647 67.5986 85.812C67.9186 86.9775 69.1048 87.6461 70.2295 87.3374C71.3534 87.0286 72.0327 85.8486 71.7129 84.6831Z" fill="#FFC107" stroke="#FFC107"/>
</svg>
