<svg width="146" height="146" viewBox="0 0 146 146" fill="none" xmlns="http://www.w3.org/2000/svg">
<rect width="146" height="146" fill="#FFE8EE"/>
<path d="M73.2141 30C55.1785 30 49.9038 30.0186 48.8785 30.1037C45.1773 30.4113 42.8741 30.9941 40.365 32.2433C38.4314 33.2035 36.9063 34.3165 35.4013 35.8768C32.6603 38.7221 30.999 42.2226 30.3977 46.3837C30.1053 48.4037 30.0202 48.8157 30.003 59.1339C29.9963 62.5733 30.003 67.0998 30.003 73.1713C30.003 91.1923 30.0229 96.4617 30.1093 97.485C30.4083 101.087 30.9731 103.352 32.1692 105.831C34.455 110.575 38.8207 114.137 43.9639 115.466C45.7447 115.925 47.7116 116.177 50.2367 116.297C51.3065 116.343 62.2108 116.376 73.1217 116.376C84.0327 116.376 94.9436 116.363 95.9869 116.31C98.9106 116.172 100.608 115.945 102.486 115.459C107.662 114.124 111.948 110.615 114.28 105.804C115.453 103.386 116.048 101.033 116.317 97.6199C116.375 96.8757 116.4 85.0099 116.4 73.16C116.4 61.3081 116.373 49.4643 116.315 48.72C116.043 45.2514 115.448 42.919 114.237 40.4538C113.244 38.4357 112.141 36.9286 110.539 35.3877C107.681 32.658 104.186 30.9967 100.021 30.396C98.0029 30.1043 97.6009 30.0179 87.2747 30H73.2141Z" fill="url(#paint0_radial_1495_938)"/>
<path d="M73.2141 30C55.1785 30 49.9038 30.0186 48.8785 30.1037C45.1773 30.4113 42.8741 30.9941 40.365 32.2433C38.4314 33.2035 36.9063 34.3165 35.4013 35.8768C32.6603 38.7221 30.999 42.2226 30.3977 46.3837C30.1053 48.4037 30.0202 48.8157 30.003 59.1339C29.9963 62.5733 30.003 67.0998 30.003 73.1713C30.003 91.1923 30.0229 96.4617 30.1093 97.485C30.4083 101.087 30.9731 103.352 32.1692 105.831C34.455 110.575 38.8207 114.137 43.9639 115.466C45.7447 115.925 47.7116 116.177 50.2367 116.297C51.3065 116.343 62.2108 116.376 73.1217 116.376C84.0327 116.376 94.9436 116.363 95.9869 116.31C98.9106 116.172 100.608 115.945 102.486 115.459C107.662 114.124 111.948 110.615 114.28 105.804C115.453 103.386 116.048 101.033 116.317 97.6199C116.375 96.8757 116.4 85.0099 116.4 73.16C116.4 61.3081 116.373 49.4643 116.315 48.72C116.043 45.2514 115.448 42.919 114.237 40.4538C113.244 38.4357 112.141 36.9286 110.539 35.3877C107.681 32.658 104.186 30.9967 100.021 30.396C98.0029 30.1043 97.6009 30.0179 87.2747 30H73.2141Z" fill="url(#paint1_radial_1495_938)"/>
<path d="M73.1941 41.2966C64.5318 41.2966 63.4447 41.3345 60.0425 41.4893C56.647 41.6448 54.3292 42.1824 52.3012 42.9711C50.2034 43.7858 48.4239 44.8756 46.651 46.6491C44.8768 48.422 43.7871 50.2015 42.9697 52.2986C42.179 54.3273 41.6408 56.6457 41.4879 60.0399C41.3358 63.4421 41.2959 64.5299 41.2959 73.1922C41.2959 81.8545 41.3344 82.9383 41.4886 86.3404C41.6448 89.736 42.1823 92.0537 42.9704 94.0818C43.7857 96.1795 44.8755 97.9591 46.649 99.7319C48.4212 101.506 50.2007 102.599 52.2972 103.413C54.3266 104.202 56.645 104.74 60.0398 104.895C63.442 105.05 64.5285 105.088 73.1901 105.088C81.8531 105.088 82.9369 105.05 86.339 104.895C89.7346 104.74 92.055 104.202 94.0843 103.413C96.1815 102.599 97.9583 101.506 99.7305 99.7319C101.505 97.9591 102.594 96.1796 103.412 94.0824C104.196 92.0537 104.734 89.7353 104.894 86.3411C105.046 82.9389 105.086 81.8545 105.086 73.1922C105.086 64.5299 105.046 63.4428 104.894 60.0406C104.734 56.645 104.196 54.3273 103.412 52.2993C102.594 50.2015 101.505 48.422 99.7305 46.6491C97.9563 44.8749 96.1821 43.7851 94.0824 42.9711C92.049 42.1824 89.7299 41.6448 86.3344 41.4893C82.9322 41.3345 81.8491 41.2966 73.1841 41.2966H73.1941ZM70.3328 47.0445C71.182 47.0431 72.1296 47.0445 73.1941 47.0445C81.7102 47.0445 82.7196 47.075 86.0826 47.2279C89.1924 47.3701 90.8802 47.8897 92.0045 48.3263C93.4929 48.9044 94.5541 49.5955 95.6698 50.7118C96.7862 51.8281 97.4772 52.8913 98.0567 54.3798C98.4932 55.5028 99.0135 57.1906 99.1551 60.3004C99.3079 63.6627 99.3411 64.6727 99.3411 73.1849C99.3411 81.697 99.3079 82.707 99.1551 86.0693C99.0129 89.1791 98.4932 90.867 98.0567 91.9899C97.4786 93.4784 96.7862 94.5383 95.6698 95.6539C94.5535 96.7703 93.4936 97.4614 92.0045 98.0395C90.8815 98.478 89.1924 98.9963 86.0826 99.1385C82.7202 99.2914 81.7102 99.3246 73.1941 99.3246C64.6773 99.3246 63.668 99.2914 60.3056 99.1385C57.1958 98.995 55.508 98.4754 54.383 98.0388C52.8946 97.4607 51.8314 96.7696 50.715 95.6533C49.5987 94.5369 48.9076 93.4764 48.3282 91.9873C47.8916 90.8643 47.3713 89.1765 47.2298 86.0667C47.077 82.7044 47.0464 81.6943 47.0464 73.1769C47.0464 64.6594 47.077 63.6547 47.2298 60.2924C47.372 57.1826 47.8916 55.4948 48.3282 54.3705C48.9063 52.882 49.5987 51.8188 50.715 50.7025C51.8314 49.5861 52.8946 48.8951 54.383 48.3156C55.5074 47.8771 57.1958 47.3588 60.3056 47.2159C63.248 47.083 64.3883 47.0431 70.3328 47.0365V47.0445ZM90.2197 52.3405C88.1066 52.3405 86.3922 54.0529 86.3922 56.1666C86.3922 58.2797 88.1066 59.9941 90.2197 59.9941C92.3327 59.9941 94.0471 58.2797 94.0471 56.1666C94.0471 54.0535 92.3327 52.3391 90.2197 52.3391V52.3405ZM73.1941 56.8125C64.1484 56.8125 56.8144 64.1465 56.8144 73.1922C56.8144 82.2379 64.1484 89.5685 73.1941 89.5685C82.2398 89.5685 89.5711 82.2379 89.5711 73.1922C89.5711 64.1465 82.2398 56.8125 73.1941 56.8125ZM73.1941 62.5603C79.0655 62.5603 83.8259 67.3201 83.8259 73.1922C83.8259 79.0636 79.0655 83.824 73.1941 83.824C67.322 83.824 62.5623 79.0636 62.5623 73.1922C62.5623 67.3201 67.322 62.5603 73.1941 62.5603Z" fill="white"/>
<defs>
<radialGradient id="paint0_radial_1495_938" cx="0" cy="0" r="1" gradientUnits="userSpaceOnUse" gradientTransform="translate(52.9501 123.029) rotate(-90) scale(85.6055 79.6415)">
<stop stop-color="#FFDD55"/>
<stop offset="0.1" stop-color="#FFDD55"/>
<stop offset="0.5" stop-color="#FF543E"/>
<stop offset="1" stop-color="#C837AB"/>
</radialGradient>
<radialGradient id="paint1_radial_1495_938" cx="0" cy="0" r="1" gradientTransform="matrix(7.5128 37.5217 -154.705 30.9764 15.5275 36.2224)" gradientUnits="userSpaceOnUse">
<stop stop-color="#3771C8"/>
<stop offset="0.128" stop-color="#3771C8"/>
<stop offset="1" stop-color="#6600FF" stop-opacity="0"/>
</radialGradient>
</defs>
</svg>
