<svg width="146" height="146" viewBox="0 0 146 146" fill="none" xmlns="http://www.w3.org/2000/svg">
<rect width="146" height="146" fill="#FFF7DF"/>
<path d="M81.5823 31.429C78.7243 30.5196 75.6065 30 72.4237 30C63.265 30 55.0157 34.1571 49.4945 40.7176L63.6547 52.6044L81.5823 31.429Z" fill="#1A73E8"/>
<path d="M49.4943 40.7168C45.1423 45.9132 42.4791 52.6685 42.4791 59.9435C42.4791 65.5946 43.5834 70.1415 45.4671 74.2336L63.6545 52.6036L49.4943 40.7168Z" fill="#EA4335"/>
<path d="M72.4883 48.5119C78.8539 48.5119 83.9854 53.6434 83.9854 60.009C83.9854 62.802 82.9461 65.4002 81.2573 67.4138C81.2573 67.4138 90.286 56.6313 99.1199 46.1735C95.4824 39.1584 89.1818 33.8321 81.582 31.4287L63.6544 52.6041C65.7979 50.1358 68.9158 48.5119 72.4883 48.5119Z" fill="#4285F4"/>
<path d="M72.4885 71.4405C66.1229 71.4405 60.9914 66.309 60.9914 59.9434C60.9914 57.1504 61.9658 54.5522 63.6546 52.6035L45.4672 74.2336C48.585 81.1188 53.7814 86.705 59.1077 93.6552L81.2574 67.3483C79.1139 69.8816 75.9961 71.4405 72.4885 71.4405Z" fill="#FBBC04"/>
<path d="M80.8675 100.93C90.8706 85.2758 102.498 78.1957 102.498 60.0083C102.498 55.0067 101.263 50.33 99.1199 46.1729L59.1075 93.655C60.7964 95.8635 62.5502 98.3968 64.239 100.995C70.3448 110.413 68.6559 116 72.5533 116C76.4506 116 74.7617 110.349 80.8675 100.93Z" fill="#34A853"/>
</svg>
