<svg width="146" height="146" viewBox="0 0 146 146" fill="none" xmlns="http://www.w3.org/2000/svg">
<rect width="146" height="146" fill="#E6F3FF"/>
<path d="M73 27C76.7118 27 80.2834 27.4043 83.7151 28.2129C87.1467 29.0215 90.3507 30.1895 93.3271 31.7168C96.3035 33.2441 99.0348 35.041 101.521 37.1074C104.007 39.1738 106.108 41.4948 107.824 44.0703C109.54 46.6458 110.888 49.401 111.868 52.3359C112.849 55.2708 113.339 58.3255 113.339 61.5V85.9375C113.339 87.1354 112.849 88.1536 111.868 88.9922C110.888 89.8307 109.697 90.25 108.297 90.25H93.1696V61.5H106.616C106.616 58.8646 106.213 56.319 105.408 53.8633C104.602 51.4076 103.482 49.1165 102.046 46.9902C100.611 44.8639 98.8597 42.9323 96.7938 41.1953C94.7278 39.4583 92.4517 37.9609 89.9655 36.7031C87.4794 35.4453 84.8006 34.472 81.9292 33.7832C79.0579 33.0944 76.0815 32.75 73 32.75C69.9185 32.75 66.9421 33.0944 64.0708 33.7832C61.1994 34.472 58.5206 35.4303 56.0345 36.6582C53.5483 37.8861 51.2897 39.3835 49.2588 41.1504C47.2278 42.9173 45.477 44.8639 44.0063 46.9902C42.5356 49.1165 41.3975 51.4076 40.5921 53.8633C39.7868 56.319 39.3841 58.8646 39.3841 61.5H52.8304V90.25H46.1073V96C46.1073 97.5872 46.4574 99.0697 47.1578 100.447C47.8581 101.825 48.821 103.053 50.0466 104.131C51.2722 105.209 52.6904 106.033 54.3011 106.602C55.9119 107.171 57.6627 107.47 59.5536 107.5V105.344C59.5536 104.355 59.9563 103.517 60.7617 102.828C61.5671 102.139 62.5651 101.78 63.7556 101.75H82.2444C83.3999 101.75 84.3804 102.094 85.1858 102.783C85.9912 103.472 86.4114 104.326 86.4464 105.344V115.406C86.4464 116.395 86.0437 117.233 85.2383 117.922C84.4329 118.611 83.4349 118.97 82.2444 119H63.7556C62.6001 119 61.6196 118.656 60.8142 117.967C60.0088 117.278 59.5886 116.424 59.5536 115.406V113.25C56.7523 113.25 54.1261 112.801 51.6749 111.902C49.2237 111.004 47.0877 109.776 45.2669 108.219C43.446 106.661 42.0103 104.835 40.9598 102.738C39.9093 100.642 39.3841 98.3958 39.3841 96V90.25H37.7033C36.3026 90.25 35.112 89.8307 34.1316 88.9922C33.1511 88.1536 32.6609 87.1354 32.6609 85.9375V61.5C32.6609 58.3255 33.1336 55.2708 34.0791 52.3359C35.0245 49.401 36.3902 46.6608 38.176 44.1152C39.9618 41.5697 42.0628 39.2337 44.479 37.1074C46.8951 34.9811 49.6089 33.1842 52.6203 31.7168C55.6318 30.2493 58.8533 29.0964 62.2849 28.2578C65.7165 27.4193 69.2882 27 73 27Z" fill="#148BEF"/>
</svg>
