<svg width="146" height="146" viewBox="0 0 146 146" fill="none" xmlns="http://www.w3.org/2000/svg">
<rect width="146" height="146" fill="#E6F3FF"/>
<g clip-path="url(#clip0_1495_1000)">
<path d="M46.4967 94.3659L55.6328 85.2299M55.6328 85.2299C57.1952 86.7923 59.0502 88.0318 61.0916 88.8774C63.1331 89.723 65.3212 90.1582 67.5308 90.1582C69.7405 90.1582 71.9286 89.723 73.97 88.8774C76.0115 88.0318 77.8664 86.7923 79.4289 85.2299C80.9914 83.6674 82.2308 81.8125 83.0764 79.771C83.922 77.7295 84.3573 75.5415 84.3573 73.3318C84.3573 71.1221 83.922 68.9341 83.0764 66.8926C82.2308 64.8511 80.9914 62.9962 79.4289 61.4337C76.2733 58.2782 71.9935 56.5054 67.5308 56.5054C63.0682 56.5054 58.7883 58.2782 55.6328 61.4337C52.4772 64.5893 50.7044 68.8691 50.7044 73.3318C50.7044 77.7944 52.4772 82.0743 55.6328 85.2299Z" stroke="#04A44A" stroke-width="6" stroke-linecap="round" stroke-linejoin="round"/>
<path d="M38.9243 76.1464C36.4371 71.8615 35.1306 66.9936 35.1381 62.0391C35.1381 46.4363 47.8521 33.7866 63.5345 33.7866H82.4654C98.1477 33.7866 110.862 46.4363 110.862 62.0391C110.862 74.3442 102.96 84.8092 91.9308 88.6863" stroke="#2F88FF" stroke-width="6" stroke-linecap="round" stroke-linejoin="round"/>
</g>
<rect x="43.7925" y="106.264" width="6.85714" height="6.85714" rx="3.42857" fill="#FF3F2E"/>
<rect x="59.7925" y="106.264" width="6.85714" height="6.85714" rx="3.42857" fill="#FEBC00"/>
<rect x="75.7925" y="106.264" width="6.85714" height="6.85714" rx="3.42857" fill="#0187F9"/>
<defs>
<clipPath id="clip0_1495_1000">
<rect width="85.1891" height="68.1513" fill="white" transform="translate(30.4054 30)"/>
</clipPath>
</defs>
</svg>
