<svg width="146" height="146" viewBox="0 0 146 146" fill="none" xmlns="http://www.w3.org/2000/svg">
<rect width="146" height="146" fill="#EBF7EE"/>
<path fill-rule="evenodd" clip-rule="evenodd" d="M27.4276 92.4437L59.2632 37.9403C63.6435 30.4411 73.3449 27.8717 80.9318 32.2014C88.5187 36.531 91.1181 46.1202 86.7378 53.6194L54.9022 108.123C50.5219 115.622 40.8206 118.191 33.2337 113.862C25.6468 109.532 23.0473 99.9429 27.4276 92.4437Z" fill="#FABC04"/>
<path fill-rule="evenodd" clip-rule="evenodd" d="M118.572 92.2113C122.952 99.7105 120.353 109.3 112.766 113.629C105.179 117.959 95.4779 115.39 91.0976 107.89L59.262 53.3869C54.8817 45.8878 57.4811 36.2986 65.068 31.9689C72.6549 27.6393 82.3562 30.2087 86.7365 37.7079L118.572 92.2113Z" fill="#3C8BD9"/>
<path fill-rule="evenodd" clip-rule="evenodd" d="M41.2655 84.7761C50.0261 84.7761 57.128 91.7959 57.128 100.455C57.128 109.114 50.0261 116.134 41.2655 116.134C32.5049 116.134 25.4031 109.114 25.4031 100.455C25.4031 91.7959 32.5049 84.7761 41.2655 84.7761Z" fill="#34A852"/>
</svg>
