<svg width="146" height="146" viewBox="0 0 146 146" fill="none" xmlns="http://www.w3.org/2000/svg">
<rect width="146" height="146" fill="#FFE8EE"/>
<path d="M120.537 47.0814C119.343 42.5427 115.76 38.9594 111.221 37.765C103.218 35.3762 73 35.3762 73 35.3762C73 35.3762 42.7815 35.3762 34.779 37.765C30.2403 38.9594 26.6571 42.5427 25.4627 47.0814C23.0739 55.0839 23.0739 73 23.0739 73C23.0739 73 23.0739 90.9161 25.4627 98.9186C26.6571 103.457 30.2403 107.041 34.779 108.235C42.7815 110.624 73 110.624 73 110.624C73 110.624 103.218 110.624 111.221 108.235C115.76 107.041 119.343 103.457 120.537 98.9186C122.926 90.9161 122.926 73 122.926 73C122.926 73 122.926 55.0839 120.537 47.0814Z" fill="#FF0000"/>
<path d="M62.8474 87.93L89.1243 72.9999L62.8474 58.0698V87.93Z" fill="white"/>
</svg>
