<svg width="146" height="146" viewBox="0 0 146 146" fill="none" xmlns="http://www.w3.org/2000/svg">
<rect width="146" height="146" fill="#E6F3FF"/>
<path d="M66.072 115.968C45.552 112.296 30 94.584 30 73.2C30 49.44 49.44 30 73.2 30C96.96 30 116.4 49.44 116.4 73.2C116.4 94.584 100.848 112.296 80.328 115.968L77.952 114.024H68.448L66.072 115.968Z" fill="url(#paint0_linear_1495_943)"/>
<path d="M90.048 85.2964L91.992 73.2004H80.544V64.7764C80.544 61.3204 81.84 58.7284 87.024 58.7284H92.64V47.7124C89.616 47.2804 86.16 46.8484 83.136 46.8484C73.2 46.8484 66.288 52.8964 66.288 63.6964V73.2004H55.488V85.2964H66.288V115.752C68.664 116.184 71.04 116.4 73.416 116.4C75.792 116.4 78.168 116.184 80.544 115.752V85.2964H90.048Z" fill="white"/>
<defs>
<linearGradient id="paint0_linear_1495_943" x1="73.2022" y1="113.395" x2="73.2022" y2="29.9841" gradientUnits="userSpaceOnUse">
<stop stop-color="#0062E0"/>
<stop offset="1" stop-color="#19AFFF"/>
</linearGradient>
</defs>
</svg>
