<svg width="146" height="146" viewBox="0 0 146 146" fill="none" xmlns="http://www.w3.org/2000/svg">
<rect width="146" height="146" fill="#FFF7DF"/>
<path d="M109.465 30H93.72C89.9116 30 86.7853 33.1263 86.7853 36.9347V57.2842H63.9916C60.2968 57.2842 57.2842 60.2968 57.2842 64.0484V86.8421H36.7642C33.0126 86.8421 30 89.8547 30 93.6063V109.522C30 113.274 33.0126 116.286 36.7642 116.4H109.522C113.331 116.4 116.457 113.274 116.457 109.465V36.9347C116.4 33.1263 113.274 30 109.465 30Z" fill="url(#paint0_linear_1495_871)"/>
<path d="M109.465 30H93.72C89.9116 30 86.7853 33.1263 86.7853 36.9347V57.2842H63.9916C60.2968 57.2842 57.2842 60.2968 57.2842 64.0484V86.8421H36.7642C33.0126 86.8421 30 89.8547 30 93.6063V109.522C30 113.274 33.0126 116.286 36.7642 116.4H109.522C113.331 116.4 116.457 113.274 116.457 109.465V36.9347C116.4 33.1263 113.274 30 109.465 30Z" fill="url(#paint1_linear_1495_871)"/>
<mask id="mask0_1495_871" style="mask-type:luminance" maskUnits="userSpaceOnUse" x="30" y="30" width="87" height="87">
<path d="M109.465 30H93.8337C90.0253 30 86.8989 33.1263 86.8989 36.9347V57.2842H64.1621C60.4105 57.2842 57.3411 60.3537 57.3411 64.1053V86.8421H36.8211C33.0695 86.8421 30 89.9116 30 93.6632V109.579C30 113.331 33.0695 116.4 36.8211 116.4H109.465C113.274 116.4 116.4 113.274 116.4 109.465V36.9347C116.4 33.1263 113.274 30 109.465 30Z" fill="white"/>
</mask>
<g mask="url(#mask0_1495_871)">
<path d="M109.465 30H93.8337C90.0252 30 86.8989 33.1263 86.8989 36.9347V116.4H109.465C113.274 116.4 116.4 113.274 116.4 109.465V36.9347C116.4 33.1263 113.274 30 109.465 30Z" fill="#F57C00"/>
<path d="M57.2842 64.1052V86.8421H36.8211C33.0695 86.8421 30 89.9115 30 93.6631V109.579C30 113.33 33.0695 116.4 36.8211 116.4H86.8421V57.2842H64.1053C60.3537 57.2842 57.2842 60.3537 57.2842 64.1052Z" fill="#FFC107"/>
</g>
<mask id="mask1_1495_871" style="mask-type:luminance" maskUnits="userSpaceOnUse" x="30" y="30" width="87" height="87">
<path d="M109.465 30H93.8337C90.0253 30 86.8989 33.1263 86.8989 36.9347V57.2842H64.1621C60.4105 57.2842 57.3411 60.3537 57.3411 64.1053V86.8421H36.8211C33.0695 86.8421 30 89.9116 30 93.6632V109.579C30 113.331 33.0695 116.4 36.8211 116.4H109.465C113.274 116.4 116.4 113.274 116.4 109.465V36.9347C116.4 33.1263 113.274 30 109.465 30Z" fill="white"/>
</mask>
<g mask="url(#mask1_1495_871)">
<path d="M86.842 57.2842V116.4H109.408C113.217 116.4 116.343 113.274 116.343 109.465V86.8421L86.842 57.2842Z" fill="url(#paint2_linear_1495_871)"/>
</g>
<mask id="mask2_1495_871" style="mask-type:luminance" maskUnits="userSpaceOnUse" x="30" y="30" width="87" height="87">
<path d="M109.465 30H93.8337C90.0253 30 86.8989 33.1263 86.8989 36.9347V57.2842H64.1621C60.4105 57.2842 57.3411 60.3537 57.3411 64.1053V86.8421H36.8211C33.0695 86.8421 30 89.9116 30 93.6632V109.579C30 113.331 33.0695 116.4 36.8211 116.4H109.465C113.274 116.4 116.4 113.274 116.4 109.465V36.9347C116.4 33.1263 113.274 30 109.465 30Z" fill="white"/>
</mask>
<g mask="url(#mask2_1495_871)">
<path opacity="0.2" d="M64.1052 57.8526H86.8421V57.2842H64.1052C60.3537 57.2842 57.2842 60.3537 57.2842 64.1052V64.6737C57.2842 60.9221 60.3537 57.8526 64.1052 57.8526Z" fill="white"/>
</g>
<mask id="mask3_1495_871" style="mask-type:luminance" maskUnits="userSpaceOnUse" x="30" y="30" width="87" height="87">
<path d="M109.465 30H93.8337C90.0253 30 86.8989 33.1263 86.8989 36.9347V57.2842H64.1621C60.4105 57.2842 57.3411 60.3537 57.3411 64.1053V86.8421H36.8211C33.0695 86.8421 30 89.9116 30 93.6632V109.579C30 113.331 33.0695 116.4 36.8211 116.4H109.465C113.274 116.4 116.4 113.274 116.4 109.465V36.9347C116.4 33.1263 113.274 30 109.465 30Z" fill="white"/>
</mask>
<g mask="url(#mask3_1495_871)">
<path opacity="0.2" d="M36.8211 87.4107H57.2842V86.8423H36.8211C33.0695 86.8423 30 89.9118 30 93.6633V94.2318C30 90.4802 33.0695 87.4107 36.8211 87.4107Z" fill="white"/>
</g>
<mask id="mask4_1495_871" style="mask-type:luminance" maskUnits="userSpaceOnUse" x="30" y="30" width="87" height="87">
<path d="M109.465 30H93.8337C90.0253 30 86.8989 33.1263 86.8989 36.9347V57.2842H64.1621C60.4105 57.2842 57.3411 60.3537 57.3411 64.1053V86.8421H36.8211C33.0695 86.8421 30 89.9116 30 93.6632V109.579C30 113.331 33.0695 116.4 36.8211 116.4H109.465C113.274 116.4 116.4 113.274 116.4 109.465V36.9347C116.4 33.1263 113.274 30 109.465 30Z" fill="white"/>
</mask>
<g mask="url(#mask4_1495_871)">
<path opacity="0.2" d="M109.465 30H93.8337C90.0252 30 86.8989 33.1263 86.8989 36.9347V37.5032C86.8989 33.6947 90.0252 30.5684 93.8337 30.5684H109.465C113.274 30.5684 116.4 33.6947 116.4 37.5032V36.9347C116.4 33.1263 113.274 30 109.465 30Z" fill="white"/>
</g>
<mask id="mask5_1495_871" style="mask-type:luminance" maskUnits="userSpaceOnUse" x="30" y="30" width="87" height="87">
<path d="M109.465 30H93.8337C90.0253 30 86.8989 33.1263 86.8989 36.9347V57.2842H64.1621C60.4105 57.2842 57.3411 60.3537 57.3411 64.1053V86.8421H36.8211C33.0695 86.8421 30 89.9116 30 93.6632V109.579C30 113.331 33.0695 116.4 36.8211 116.4H109.465C113.274 116.4 116.4 113.274 116.4 109.465V36.9347C116.4 33.1263 113.274 30 109.465 30Z" fill="white"/>
</mask>
<g mask="url(#mask5_1495_871)">
<path opacity="0.2" d="M109.465 115.832H36.8211C33.0695 115.832 30 112.762 30 109.011V109.579C30 113.331 33.0695 116.4 36.8211 116.4H109.408C113.217 116.4 116.343 113.274 116.343 109.465V108.897C116.4 112.705 113.274 115.832 109.465 115.832Z" fill="#BF360C"/>
</g>
<path d="M109.465 30H93.8337C90.0253 30 86.8989 33.1263 86.8989 36.9347V57.2842H64.1621C60.4105 57.2842 57.3411 60.3537 57.3411 64.1053V86.8421H36.8211C33.0695 86.8421 30 89.9116 30 93.6632V109.579C30 113.331 33.0695 116.4 36.8211 116.4H109.465C113.274 116.4 116.4 113.274 116.4 109.465V36.9347C116.4 33.1263 113.274 30 109.465 30Z" fill="url(#paint3_linear_1495_871)"/>
<defs>
<linearGradient id="paint0_linear_1495_871" x1="30" y1="73.2" x2="116.457" y2="73.2" gradientUnits="userSpaceOnUse">
<stop stop-color="white" stop-opacity="0.1"/>
<stop offset="1" stop-color="white" stop-opacity="0"/>
</linearGradient>
<linearGradient id="paint1_linear_1495_871" x1="30" y1="73.2" x2="116.457" y2="73.2" gradientUnits="userSpaceOnUse">
<stop stop-color="white" stop-opacity="0.1"/>
<stop offset="1" stop-color="white" stop-opacity="0"/>
</linearGradient>
<linearGradient id="paint2_linear_1495_871" x1="72.2052" y1="72.2052" x2="114.331" y2="114.331" gradientUnits="userSpaceOnUse">
<stop stop-color="#BF360C" stop-opacity="0.2"/>
<stop offset="1" stop-color="#BF360C" stop-opacity="0.02"/>
</linearGradient>
<linearGradient id="paint3_linear_1495_871" x1="58.9719" y1="59.0071" x2="114.862" y2="114.898" gradientUnits="userSpaceOnUse">
<stop stop-color="white" stop-opacity="0.1"/>
<stop offset="1" stop-color="white" stop-opacity="0"/>
</linearGradient>
</defs>
</svg>
