<svg width="146" height="146" viewBox="0 0 146 146" fill="none" xmlns="http://www.w3.org/2000/svg">
<rect width="146" height="146" fill="#F7F2FD"/>
<path d="M50.3529 84.3775C50.8217 80.4958 52.4137 78.3226 55.4137 76.0948C59.7064 73.0774 65.0683 74.7841 65.0683 74.7841V64.6588C66.3721 64.6252 67.6762 64.7026 68.9653 64.8895V77.92C68.9653 77.92 63.6049 76.2133 59.3125 79.2322C56.314 81.4585 54.7187 83.6335 54.2515 87.5152C54.2369 89.623 54.6324 92.3782 56.4541 94.7605C56.0035 94.5295 55.5445 94.2664 55.0768 93.9712C51.0642 91.2766 50.3333 87.2344 50.3529 84.3775ZM91.1056 45.9367C88.1527 42.7009 87.0358 39.4339 86.6323 37.1389H90.3469C90.3469 37.1389 89.6062 43.1565 95.0041 49.0742L95.0791 49.1538C93.6241 48.2386 92.29 47.1585 91.1056 45.9367ZM109 55.1104V67.8787C109 67.8787 104.26 67.6933 100.752 66.8008C95.8537 65.5525 92.7055 63.6382 92.7055 63.6382C92.7055 63.6382 90.5308 62.2732 90.355 62.1781V88.5448C90.355 90.013 89.953 93.6793 88.7272 96.7372C87.127 100.738 84.6577 103.363 84.2035 103.9C84.2035 103.9 81.2002 107.449 75.9016 109.84C71.1256 111.996 66.9322 111.941 65.6788 111.996C65.6788 111.996 58.4302 112.283 51.9075 108.044C50.4969 107.109 49.1803 106.051 47.9746 104.883L48.0072 104.906C54.5315 109.145 61.7785 108.858 61.7785 108.858C63.0337 108.804 67.2268 108.858 72.0013 106.702C77.2951 104.312 80.3032 100.763 80.3032 100.763C80.7526 100.226 83.2333 97.6 84.8269 93.5983C86.0494 90.5419 86.4547 86.8738 86.4547 85.4059V59.0422C86.6305 59.1388 88.8037 60.5038 88.8037 60.5038C88.8037 60.5038 91.9537 62.4199 96.8518 63.6664C100.361 64.5589 105.1 64.7446 105.1 64.7446V54.7392C106.721 55.1026 108.103 55.201 109 55.1104Z" fill="#EE1D52"/>
<path d="M105.103 54.7392V64.7413C105.103 64.7413 100.364 64.5556 96.8545 63.6634C91.9564 62.4151 88.8064 60.5008 88.8064 60.5008C88.8064 60.5008 86.6332 59.1358 86.4574 59.0389V85.4089C86.4574 86.8771 86.0554 90.5449 84.8296 93.6013C83.2294 97.6033 80.7601 100.229 80.3059 100.766C80.3059 100.766 77.3011 104.315 72.004 106.705C67.2295 108.861 63.0364 108.807 61.7812 108.861C61.7812 108.861 54.5342 109.149 48.0098 104.91L47.9773 104.886C47.2885 104.219 46.6401 103.515 46.0353 102.777C43.9533 100.238 42.6771 97.2364 42.3564 96.3799V96.3691C41.8404 94.8808 40.7563 91.3063 40.9044 87.8443C41.1665 81.7363 43.3152 77.9872 43.8833 77.0479C45.3879 74.4868 47.3448 72.1951 49.667 70.2754C51.7161 68.6185 54.0388 67.3003 56.5396 66.3748C59.2432 65.2882 62.1382 64.7056 65.0695 64.6588V74.7841C65.0695 74.7841 59.7073 73.0837 55.4164 76.0948C52.4164 78.3226 50.8244 80.4958 50.3555 84.3775C50.336 87.2344 51.0669 91.2766 55.0762 93.9727C55.5439 94.2691 56.0029 94.5322 56.4535 94.762C57.1537 95.6725 58.0063 96.466 58.9765 97.1101C62.893 99.5893 66.1747 99.7624 70.3714 98.1523C73.1695 97.0759 75.2758 94.6498 76.2526 91.9615C76.8664 90.283 76.8583 88.5931 76.8583 86.8459V37.1389H86.6251C87.0289 39.4339 88.1455 42.7009 91.0984 45.9367C92.2828 47.1585 93.6172 48.2386 95.0719 49.1538C95.5018 49.5984 97.6993 51.7967 100.52 53.1462C101.979 53.8438 103.517 54.3783 105.103 54.7392Z" fill="black"/>
<path d="M38.4678 93.2703V93.2781L38.7101 93.9351C38.6823 93.8586 38.5922 93.6261 38.4678 93.2703Z" fill="#69C9D0"/>
<path d="M56.5384 66.3745C54.0376 67.3003 51.7149 68.6185 49.6658 70.2751C47.3429 72.1993 45.3864 74.4958 43.8837 77.0617C43.3156 77.998 41.1669 81.7501 40.9048 87.8581C40.7567 91.3201 41.8408 94.8946 42.3568 96.3829V96.3937C42.6824 97.2427 43.9537 100.244 46.0357 102.791C46.6405 103.529 47.2889 104.233 47.9777 104.9C45.7707 103.437 43.8024 101.668 42.1371 99.6514C40.073 97.135 38.8 94.1644 38.468 93.2875C38.4676 93.2812 38.4676 93.2749 38.468 93.2689V93.2578C37.9503 91.771 36.8629 88.195 37.0143 84.7285C37.2764 78.6205 39.4251 74.8714 39.9933 73.9321C41.4955 71.3656 43.452 69.0691 45.7753 67.1455C47.824 65.488 50.1468 64.1698 52.6479 63.2449C54.2081 62.6245 55.8334 62.167 57.4957 61.8799C60.0007 61.4608 62.5594 61.4242 65.0764 61.7722V64.6585C62.1424 64.7044 59.2444 65.287 56.5384 66.3745Z" fill="#69C9D0"/>
<path d="M86.6313 37.1388H76.8642V86.8475C76.8642 88.5947 76.8642 90.2798 76.2588 91.9631C75.2724 94.6499 73.1739 97.0757 70.3773 98.1524C66.1794 99.7688 62.8977 99.5894 58.9827 97.1102C58.0107 96.4688 57.156 95.678 56.4531 94.7699C59.7885 96.4751 62.7738 96.4454 66.4722 95.0228C69.2673 93.9461 71.3688 91.52 72.3519 88.832C72.9672 87.1532 72.9591 85.4636 72.9591 83.7176V33.9998H86.4456C86.4456 33.9998 86.2944 35.2354 86.6313 37.1388ZM105.101 51.9729V54.7391C103.517 54.3776 101.983 53.8432 100.526 53.1461C97.7055 51.7966 95.5077 49.5983 95.0781 49.1537C95.5767 49.4675 96.0942 49.7529 96.6276 50.0086C100.058 51.6499 103.435 52.1398 105.101 51.9729Z" fill="#69C9D0"/>
</svg>
