<svg width="146" height="146" viewBox="0 0 146 146" fill="none" xmlns="http://www.w3.org/2000/svg">
<rect width="146" height="146" fill="#E6F3FF"/>
<path d="M41.0188 52.36H41.1249C46.8165 52.36 50.36 48.28 50.36 43.18C50.2539 37.9678 46.8165 34 41.233 34C35.6496 34 32 37.9678 32 43.18C32 48.28 35.5414 52.36 41.0188 52.36ZM32 58.48H50.36V111.52H32V58.48ZM113.6 77.86C113.6 67.1561 104.924 58.48 94.22 58.48C87.9919 58.48 82.4655 61.4298 78.92 65.9954V58.48H60.56V111.52H78.92V80.92C78.92 76.4136 82.5736 72.76 87.08 72.76C91.5864 72.76 95.24 76.4136 95.24 80.92V111.52H113.6C113.6 111.52 113.6 80.8282 113.6 77.86Z" fill="#0078D4"/>
</svg>
