<svg xmlns="http://www.w3.org/2000/svg" width="206" height="53" viewBox="0 0 206 53" fill="none"><path d="M88.0606 17.9334H87.8145C87.0165 17.9334 86.2583 18.3124 85.7396 18.9708L80.2529 26.5457V20.9261C80.2529 19.2768 79.0226 17.9334 77.5063 17.9334C76.6218 17.9334 75.7905 18.4055 75.2717 19.1903L71.5541 25.5016V17.8602H67.2778V33.7416H71.0021C71.4011 33.1231 76.1429 25.3154 76.1429 25.3154V33.7416H79.7275C79.7741 33.6751 79.8539 33.5753 79.9803 33.4157L86.6108 24.4575V33.7416H90.8073V20.9327C90.8073 20.0948 90.4814 19.2901 89.9161 18.7248C89.4106 18.2193 88.7522 17.94 88.0672 17.94L88.0606 17.9334Z" fill="#7388AA"></path><path d="M105.844 20.6068C105.199 19.9152 104.414 19.3831 103.483 18.9974C102.552 18.6183 101.481 18.4255 100.271 18.4255C98.8211 18.4255 97.5176 18.7713 96.3604 19.4563C95.2032 20.148 94.2855 21.0857 93.6071 22.2761C92.9288 23.4665 92.5896 24.8299 92.5896 26.3529C92.5896 27.8758 92.9155 29.166 93.5672 30.3764C94.219 31.5868 95.1434 32.5511 96.3338 33.2694C97.5243 33.9876 98.9342 34.3467 100.55 34.3467C101.594 34.3467 102.552 34.1938 103.43 33.8879C104.308 33.5819 105.066 33.1497 105.704 32.591C106.349 32.0324 106.815 31.3806 107.114 30.6358L103.762 29.0463C103.463 29.565 103.051 29.9774 102.519 30.2766C101.987 30.5759 101.348 30.7222 100.603 30.7222C99.7854 30.7222 99.0871 30.5427 98.5085 30.1769C97.9299 29.8111 97.5043 29.3057 97.225 28.6539C97.0787 28.3214 96.9856 27.9556 96.939 27.5632H107.62C107.693 27.3571 107.746 27.111 107.773 26.825C107.799 26.5391 107.813 26.2398 107.813 25.9472C107.813 24.8831 107.646 23.9055 107.307 23.001C106.975 22.0965 106.482 21.2985 105.844 20.6135V20.6068ZM98.3955 22.316C98.9142 21.9635 99.5394 21.784 100.264 21.784C100.989 21.784 101.641 21.9635 102.153 22.3293C102.665 22.6951 103.024 23.1872 103.23 23.8124C103.304 24.0318 103.343 24.258 103.363 24.4974H97.0454C97.092 24.2846 97.1518 24.0717 97.225 23.8855C97.4844 23.1939 97.8767 22.6751 98.3955 22.3227V22.316Z" fill="#7388AA"></path><path d="M120.528 20.0615C120.129 19.6625 119.664 19.3233 119.118 19.0573C118.254 18.6383 117.263 18.4322 116.146 18.4322C114.696 18.4322 113.379 18.7846 112.209 19.4962C111.038 20.2012 110.107 21.1588 109.415 22.3559C108.724 23.5597 108.385 24.9031 108.385 26.3928C108.385 27.8825 108.724 29.2059 109.402 30.4163C110.08 31.6267 111.011 32.5844 112.182 33.296C113.352 34.0009 114.689 34.3601 116.179 34.3601C117.223 34.3601 118.187 34.1672 119.085 33.7881C119.777 33.4955 120.349 33.0898 120.814 32.5777V34.0209H124.725V12.8723H120.535V20.0615H120.528ZM120.036 28.5675C119.71 29.1993 119.258 29.6914 118.679 30.0505C118.101 30.403 117.429 30.5826 116.671 30.5826C115.913 30.5826 115.221 30.403 114.616 30.0505C114.011 29.6981 113.539 29.2059 113.206 28.5675C112.874 27.9357 112.701 27.2108 112.701 26.3861C112.701 25.5615 112.867 24.8432 113.206 24.2181C113.539 23.5929 114.011 23.1008 114.616 22.735C115.221 22.3692 115.906 22.1897 116.671 22.1897C117.436 22.1897 118.108 22.3692 118.679 22.7217C119.258 23.0742 119.71 23.5663 120.036 24.2048C120.362 24.8366 120.528 25.5615 120.528 26.3861C120.528 27.2108 120.362 27.929 120.036 28.5675Z" fill="#7388AA"></path><path d="M130.976 18.7646H126.786V34.0142H130.976V18.7646Z" fill="#7388AA"></path><path d="M130.976 13.2049H126.786V17.3947H130.976V13.2049Z" fill="#7388AA"></path><path d="M143.073 19.1304C142.089 18.6649 140.952 18.4321 139.668 18.4321C138.591 18.4321 137.593 18.5984 136.682 18.9376C135.771 19.2701 134.986 19.7489 134.335 20.3608C133.683 20.9726 133.211 21.7108 132.911 22.5687L136.263 24.1582C136.523 23.4865 136.935 22.9478 137.507 22.5355C138.072 22.1231 138.731 21.9236 139.475 21.9236C140.26 21.9236 140.879 22.1165 141.331 22.5089C141.79 22.9013 142.016 23.3867 142.016 23.9587V24.3644L137.8 25.0494C136.589 25.2356 135.578 25.5548 134.767 26.0004C133.956 26.446 133.357 27.0046 132.965 27.663C132.572 28.3214 132.379 29.0862 132.379 29.9375C132.379 30.8486 132.592 31.64 133.024 32.2984C133.45 32.9568 134.069 33.4689 134.867 33.8214C135.665 34.1738 136.616 34.3534 137.713 34.3534C138.531 34.3534 139.276 34.247 139.948 34.0342C140.619 33.8214 141.225 33.4955 141.763 33.0565C141.943 32.9102 142.122 32.744 142.295 32.5644V34.0209H146.206V23.9653C146.206 22.868 145.933 21.9037 145.381 21.0724C144.829 20.2411 144.064 19.596 143.08 19.1304H143.073ZM141.577 29.6182C141.291 30.1303 140.885 30.536 140.36 30.8353C139.841 31.1346 139.229 31.2809 138.544 31.2809C138.026 31.2809 137.587 31.1479 137.234 30.8885C136.882 30.6291 136.702 30.2633 136.702 29.7978C136.702 29.2924 136.862 28.9066 137.174 28.6406C137.494 28.368 137.946 28.1817 138.544 28.0687L142.009 27.4502V27.929C142.009 28.5409 141.863 29.1062 141.577 29.6182Z" fill="#7388AA"></path><path d="M160.764 19.4896C159.593 18.7846 158.276 18.4255 156.827 18.4255C155.709 18.4255 154.718 18.6317 153.854 19.0506C153.309 19.3167 152.843 19.6558 152.444 20.0549V12.8723H148.254V34.0142H152.165V32.5578C152.643 33.0699 153.222 33.4822 153.907 33.7748C154.792 34.1539 155.756 34.3468 156.8 34.3468C158.29 34.3468 159.62 33.9943 160.797 33.2827C161.967 32.5777 162.899 31.6134 163.577 30.403C164.255 29.1926 164.594 27.8492 164.594 26.3795C164.594 24.9097 164.249 23.5464 163.564 22.3426C162.872 21.1389 161.941 20.1879 160.77 19.4829L160.764 19.4896ZM159.753 28.5675C159.42 29.1993 158.955 29.6914 158.356 30.0505C157.758 30.403 157.073 30.5826 156.288 30.5826C155.503 30.5826 154.878 30.403 154.293 30.0505C153.708 29.6981 153.249 29.2059 152.923 28.5675C152.597 27.9357 152.437 27.2108 152.437 26.3861C152.437 25.5615 152.597 24.8432 152.923 24.2048C153.249 23.573 153.708 23.0808 154.293 22.7217C154.878 22.3692 155.543 22.1897 156.288 22.1897C157.073 22.1897 157.758 22.3692 158.356 22.735C158.955 23.1008 159.42 23.5929 159.753 24.2181C160.085 24.8432 160.258 25.5615 160.258 26.3861C160.258 27.2108 160.092 27.929 159.753 28.5675Z" fill="#7388AA"></path><path d="M174.843 18.5984H173.952C172.888 18.5984 171.97 18.8245 171.198 19.2834C170.613 19.6292 170.154 20.2145 169.815 21.0458V18.7713H165.905V34.0209H170.094V25.8075C170.094 24.6703 170.414 23.7924 171.045 23.1673C171.677 22.5421 172.508 22.2296 173.533 22.2296H174.843V18.5984Z" fill="#7388AA"></path><path d="M186.94 19.463C185.71 18.7713 184.34 18.4321 182.837 18.4321C181.334 18.4321 179.957 18.778 178.713 19.463C177.476 20.1546 176.485 21.0923 175.754 22.2828C175.016 23.4732 174.65 24.8432 174.65 26.3861C174.65 27.929 175.016 29.2791 175.754 30.4762C176.492 31.6799 177.476 32.6243 178.713 33.3093C179.95 34.0009 181.327 34.3401 182.837 34.3401C184.346 34.3401 185.716 33.9943 186.94 33.3093C188.17 32.6176 189.148 31.6732 189.886 30.4762C190.624 29.2724 190.99 27.9091 190.99 26.3861C190.99 24.8631 190.624 23.4732 189.886 22.2828C189.148 21.0923 188.17 20.148 186.94 19.463ZM186.169 28.5675C185.843 29.1993 185.397 29.6914 184.825 30.0505C184.26 30.403 183.588 30.5826 182.83 30.5826C182.072 30.5826 181.393 30.403 180.822 30.0505C180.243 29.6981 179.791 29.2059 179.465 28.5675C179.139 27.9357 178.979 27.2108 178.979 26.3861C178.979 25.5614 179.139 24.8432 179.465 24.2181C179.791 23.5929 180.243 23.1008 180.822 22.735C181.4 22.3692 182.072 22.1897 182.83 22.1897C183.588 22.1897 184.26 22.3692 184.825 22.735C185.39 23.1008 185.843 23.5929 186.169 24.2181C186.494 24.8432 186.661 25.5614 186.661 26.3861C186.661 27.2108 186.494 27.929 186.169 28.5675Z" fill="#7388AA"></path><path d="M199.975 25.1358L197.548 24.4109C197.175 24.2979 196.863 24.1781 196.61 24.0451C196.357 23.9121 196.178 23.7658 196.065 23.5996C195.952 23.4333 195.898 23.2471 195.898 23.0409C195.898 22.6485 196.051 22.3426 196.357 22.1165C196.663 21.8904 197.089 21.784 197.627 21.784C198.372 21.784 199.037 21.9768 199.623 22.3559C200.208 22.735 200.614 23.2471 200.84 23.8789L203.939 22.4291C203.473 21.1655 202.675 20.1812 201.551 19.4829C200.427 18.7846 199.117 18.4321 197.627 18.4321C196.49 18.4321 195.486 18.6316 194.608 19.0307C193.73 19.4297 193.052 19.9883 192.566 20.6933C192.081 21.3982 191.842 22.2296 191.842 23.1806C191.842 24.258 192.174 25.1957 192.846 25.9871C193.517 26.7785 194.475 27.3504 195.725 27.7029L198.326 28.4278C198.658 28.5209 198.938 28.634 199.164 28.7603C199.39 28.8933 199.556 29.033 199.669 29.1926C199.782 29.3522 199.835 29.5384 199.835 29.7646C199.835 30.1902 199.676 30.5294 199.363 30.7688C199.044 31.0082 198.592 31.1346 197.993 31.1346C197.175 31.1346 196.43 30.9018 195.759 30.4363C195.087 29.9707 194.555 29.3256 194.169 28.5076L191.097 29.9574C191.542 31.3008 192.387 32.3649 193.624 33.1563C194.861 33.9477 196.317 34.3401 197.993 34.3401C199.184 34.3401 200.221 34.1406 201.092 33.7415C201.97 33.3425 202.649 32.7905 203.147 32.0789C203.64 31.374 203.886 30.5427 203.886 29.5916C203.886 28.4943 203.553 27.5699 202.881 26.8117C202.21 26.0602 201.245 25.4949 199.975 25.1225V25.1358Z" fill="#7388AA"></path><path d="M168.962 44.8218V37.8218H170.262V43.6318H173.232V44.8218H168.962ZM174.06 44.8218L176.745 37.8218H178.195L180.935 44.8218H179.47L178.875 43.2368H176.06L175.485 44.8218H174.06ZM176.38 42.1318H178.545L177.445 39.2918L176.38 42.1318ZM183.596 44.8218V39.0118H181.661V37.8218H186.836V39.0118H184.901V44.8218H183.596ZM187.566 44.8218L190.251 37.8218H191.701L194.441 44.8218H192.976L192.381 43.2368H189.566L188.991 44.8218H187.566ZM189.886 42.1318H192.051L190.951 39.2918L189.886 42.1318ZM195.807 44.8218V37.8218H197.062L199.852 42.3918L199.342 42.3968L202.017 37.8218H203.257V44.8218H201.992L202.012 39.5218L202.252 39.6068L199.992 43.3768H199.077L196.762 39.6068L196.977 39.5218L196.997 44.8218H195.807Z" fill="#7488AA"></path><rect x="0.482178" y="0.176056" width="52.6671" height="52.6671" rx="26.3335" fill="#148BEF"></rect><path d="M30.0275 23.2041V34.2357H25.919V26.8326C25.7533 27.0254 19.4825 34.3185 19.5536 34.2357H16.0701V27.6051C15.7362 28.0748 11.5254 33.9911 11.352 34.2357H7.72876V20.5384H11.9201V26.3667L15.273 21.6564C15.7725 20.9551 16.5799 20.5384 17.4405 20.5384C18.9105 20.5384 20.1023 21.7302 20.1023 23.2002V27.3114L25.1244 21.4688C25.6291 20.8813 26.3641 20.5436 27.1379 20.5423H27.3618C28.8331 20.5397 30.0275 21.7315 30.0275 23.2028V23.2041Z" fill="white"></path><path d="M44.9555 24.2729C44.3939 23.239 43.6227 22.4276 42.6418 21.8388C41.6609 21.2501 40.5196 20.9563 39.2178 20.9563C38.6653 20.9563 38.1438 21.0275 37.6533 21.1698C37.1629 21.3122 36.7177 21.5218 36.3166 21.7987C35.9154 22.0756 35.5816 22.4004 35.3137 22.7744H35.2335V15.4722H31.0874V27.8833C31.0874 29.3818 31.3902 30.6913 31.9971 31.8158C32.6027 32.939 33.4594 33.8048 34.5645 34.4104C35.6696 35.016 36.9623 35.3201 38.4427 35.3201C39.6021 35.3201 40.6309 35.1415 41.5328 34.7856C42.4335 34.4298 43.1995 33.916 43.8336 33.247C44.4664 32.578 44.953 31.7887 45.292 30.8802C45.631 29.9705 45.8005 28.9806 45.8005 27.9117C45.8005 26.5206 45.5197 25.3081 44.9581 24.2742L44.9555 24.2729ZM41.1847 29.9835C40.9259 30.5283 40.5649 30.9553 40.1016 31.2672C39.6384 31.579 39.0858 31.7356 38.4427 31.7356C37.7995 31.7356 37.2431 31.579 36.7708 31.2672C36.2985 30.9553 35.9374 30.527 35.6877 29.9835C35.4379 29.44 35.3137 28.8292 35.3137 28.1511C35.3137 27.4731 35.4379 26.8674 35.6877 26.3317C35.9374 25.7973 36.2985 25.3728 36.7708 25.061C37.2431 24.7491 37.8008 24.5925 38.4427 24.5925C39.0845 24.5925 39.6371 24.7491 40.1016 25.061C40.5649 25.3728 40.9259 25.796 41.1847 26.3317C41.4435 26.8662 41.5729 27.4731 41.5729 28.1511C41.5729 28.8292 41.4435 29.44 41.1847 29.9835Z" fill="white"></path></svg>