<svg xmlns="http://www.w3.org/2000/svg" width="80" height="80" viewBox="0 0 80 80" fill="none"><rect width="79.1929" height="79.1929" rx="39.5964" fill="#148BEF"></rect><path d="M44.4258 34.6261V51.2138H38.2479V40.082C37.9989 40.3719 28.5697 51.3383 28.6767 51.2138H23.4387V41.2437C22.9367 41.95 16.6051 50.846 16.3444 51.2138H10.8962V30.6178H17.1986V39.3815L22.2401 32.2989C22.9912 31.2443 24.2053 30.6178 25.4992 30.6178C27.7096 30.6178 29.5017 32.4099 29.5017 34.6202V40.802L37.0532 32.0168C37.8121 31.1334 38.9173 30.6256 40.0809 30.6236H40.4175C42.6298 30.6197 44.4258 32.4118 44.4258 34.6241V34.6261Z" fill="white"></path><path d="M66.8722 36.2332C66.0278 34.6785 64.8681 33.4585 63.3932 32.5732C61.9183 31.6879 60.2021 31.2462 58.2447 31.2462C57.4138 31.2462 56.6297 31.3532 55.8923 31.5672C55.1548 31.7813 54.4855 32.0965 53.8823 32.5129C53.2791 32.9293 52.7771 33.4177 52.3743 33.98H52.2537V23H46.0194V41.6619C46.0194 43.9151 46.4747 45.8842 47.3873 47.5751C48.2979 49.264 49.586 50.5657 51.2477 51.4764C52.9094 52.387 54.8532 52.8442 57.0792 52.8442C58.8226 52.8442 60.3695 52.5757 61.7257 52.0406C63.0799 51.5055 64.2318 50.7331 65.1853 49.7271C66.1367 48.7211 66.8683 47.5342 67.3781 46.1683C67.8879 44.8004 68.1428 43.3119 68.1428 41.7047C68.1428 39.613 67.7206 37.7898 66.8761 36.2351L66.8722 36.2332ZM61.2023 44.8199C60.8131 45.639 60.2702 46.2811 59.5737 46.7501C58.8771 47.219 58.0462 47.4544 57.0792 47.4544C56.1121 47.4544 55.2754 47.219 54.5652 46.7501C53.855 46.2811 53.3122 45.6371 52.9366 44.8199C52.5611 44.0026 52.3743 43.0842 52.3743 42.0647C52.3743 41.0451 52.5611 40.1345 52.9366 39.3289C53.3122 38.5253 53.855 37.8871 54.5652 37.4182C55.2754 36.9492 56.1141 36.7138 57.0792 36.7138C58.0443 36.7138 58.8751 36.9492 59.5737 37.4182C60.2702 37.8871 60.8131 38.5234 61.2023 39.3289C61.5914 40.1325 61.786 41.0451 61.786 42.0647C61.786 43.0842 61.5914 44.0026 61.2023 44.8199Z" fill="white"></path></svg>