<svg width="133" height="52" viewBox="0 0 133 52" fill="none" xmlns="http://www.w3.org/2000/svg">
  <path
    d="M34.1406 52L31.2109 42.0391H15.0781L12.1875 52H0.234375L16.7578 0.828125H29.5312L46.0938 52H34.1406ZM23.0469 14.5781L17.7344 32.8984H28.5938L23.2422 14.5781H23.0469ZM59.2406 9.96875V25.3203H68.1078C70.6339 25.3203 72.574 24.6302 73.9281 23.25C75.3083 21.8698 75.9984 20.0208 75.9984 17.7031C75.9984 15.3594 75.3083 13.4844 73.9281 12.0781C72.574 10.6719 70.6339 9.96875 68.1078 9.96875H59.2406ZM68.1078 34.4609H59.2406V52H47.3266V0.828125H68.1078C74.1755 0.828125 78.9802 2.36458 82.5219 5.4375C86.0896 8.51042 87.8734 12.5859 87.8734 17.6641C87.8734 22.7422 86.0896 26.8177 82.5219 29.8906C78.9802 32.9375 74.1755 34.4609 68.1078 34.4609ZM104.106 9.96875V25.3203H112.973C115.499 25.3203 117.44 24.6302 118.794 23.25C120.174 21.8698 120.864 20.0208 120.864 17.7031C120.864 15.3594 120.174 13.4844 118.794 12.0781C117.44 10.6719 115.499 9.96875 112.973 9.96875H104.106ZM112.973 34.4609H104.106V52H92.1922V0.828125H112.973C119.041 0.828125 123.846 2.36458 127.387 5.4375C130.955 8.51042 132.739 12.5859 132.739 17.6641C132.739 22.7422 130.955 26.8177 127.387 29.8906C123.846 32.9375 119.041 34.4609 112.973 34.4609Z"
    fill="#148BEF"
  />
</svg>