<svg width="206" height="53" viewBox="0 0 206 53" fill="none" xmlns="http://www.w3.org/2000/svg">
<g clip-path="url(#clip0_2616_877)">
<path d="M88.0601 17.9341H87.814C87.016 17.9341 86.2578 18.3131 85.7391 18.9715L80.2524 26.5464V20.9268C80.2524 19.2775 79.0221 17.9341 77.5058 17.9341C76.6213 17.9341 75.79 18.4062 75.2712 19.191L71.5536 25.5023V17.8609H67.2773V33.7423H71.0016C71.4006 33.1238 76.1424 25.3161 76.1424 25.3161V33.7423H79.727C79.7736 33.6758 79.8534 33.576 79.9798 33.4164L86.6103 24.4582V33.7423H90.8068V20.9334C90.8068 20.0955 90.4809 19.2908 89.9156 18.7255C89.4101 18.22 88.7517 17.9407 88.0667 17.9407L88.0601 17.9341Z" fill="#FFFFFF"/>
<path d="M105.844 20.6075C105.199 19.9159 104.414 19.3838 103.483 18.9981C102.552 18.619 101.481 18.4262 100.271 18.4262C98.8206 18.4262 97.5171 18.772 96.3599 19.457C95.2027 20.1487 94.285 21.0864 93.6066 22.2768C92.9283 23.4672 92.5891 24.8306 92.5891 26.3536C92.5891 27.8765 92.915 29.1667 93.5667 30.3771C94.2185 31.5875 95.1429 32.5518 96.3333 33.2701C97.5238 33.9883 98.9337 34.3474 100.55 34.3474C101.594 34.3474 102.552 34.1945 103.43 33.8886C104.308 33.5826 105.066 33.1504 105.704 32.5917C106.349 32.0331 106.815 31.3813 107.114 30.6365L103.762 29.047C103.463 29.5657 103.051 29.9781 102.519 30.2773C101.987 30.5766 101.348 30.7229 100.603 30.7229C99.7849 30.7229 99.0866 30.5434 98.508 30.1776C97.9294 29.8118 97.5038 29.3064 97.2245 28.6546C97.0782 28.3221 96.9851 27.9563 96.9385 27.5639H107.62C107.693 27.3578 107.746 27.1117 107.773 26.8257C107.799 26.5398 107.813 26.2405 107.813 25.9479C107.813 24.8838 107.646 23.9062 107.307 23.0017C106.975 22.0972 106.482 21.2992 105.844 20.6142V20.6075ZM98.395 22.3167C98.9137 21.9642 99.5389 21.7847 100.264 21.7847C100.989 21.7847 101.641 21.9642 102.153 22.33C102.665 22.6958 103.024 23.1879 103.23 23.8131C103.304 24.0325 103.343 24.2587 103.363 24.4981H97.0449C97.0915 24.2853 97.1513 24.0724 97.2245 23.8862C97.4839 23.1946 97.8762 22.6758 98.395 22.3234V22.3167Z" fill="#FFFFFF"/>
<path d="M120.528 20.0622C120.129 19.6632 119.664 19.324 119.118 19.058C118.254 18.639 117.263 18.4329 116.146 18.4329C114.696 18.4329 113.379 18.7853 112.209 19.4969C111.038 20.2019 110.107 21.1595 109.415 22.3566C108.724 23.5604 108.385 24.9038 108.385 26.3935C108.385 27.8832 108.724 29.2066 109.402 30.417C110.08 31.6274 111.011 32.5851 112.182 33.2967C113.352 34.0016 114.689 34.3608 116.179 34.3608C117.223 34.3608 118.187 34.1679 119.085 33.7888C119.777 33.4962 120.349 33.0905 120.814 32.5784V34.0216H124.725V12.873H120.535V20.0622H120.528ZM120.036 28.5682C119.71 29.2 119.258 29.6921 118.679 30.0512C118.101 30.4037 117.429 30.5833 116.671 30.5833C115.913 30.5833 115.221 30.4037 114.616 30.0512C114.011 29.6988 113.539 29.2066 113.206 28.5682C112.874 27.9364 112.701 27.2115 112.701 26.3868C112.701 25.5622 112.867 24.8439 113.206 24.2188C113.539 23.5936 114.011 23.1015 114.616 22.7357C115.221 22.3699 115.906 22.1904 116.671 22.1904C117.436 22.1904 118.108 22.3699 118.679 22.7224C119.258 23.0749 119.71 23.567 120.036 24.2055C120.362 24.8373 120.528 25.5622 120.528 26.3868C120.528 27.2115 120.362 27.9297 120.036 28.5682Z" fill="#FFFFFF"/>
<path d="M130.976 18.7653H126.786V34.0149H130.976V18.7653Z" fill="#FFFFFF"/>
<path d="M130.976 13.2056H126.786V17.3954H130.976V13.2056Z" fill="#FFFFFF"/>
<path d="M143.073 19.1311C142.089 18.6656 140.952 18.4328 139.668 18.4328C138.591 18.4328 137.593 18.5991 136.682 18.9383C135.771 19.2708 134.986 19.7496 134.335 20.3615C133.683 20.9733 133.211 21.7115 132.911 22.5694L136.263 24.1589C136.523 23.4872 136.935 22.9485 137.507 22.5362C138.072 22.1238 138.731 21.9243 139.475 21.9243C140.26 21.9243 140.879 22.1172 141.331 22.5096C141.79 22.902 142.016 23.3874 142.016 23.9594V24.3651L137.8 25.0501C136.589 25.2363 135.578 25.5555 134.767 26.0011C133.956 26.4467 133.357 27.0053 132.965 27.6637C132.572 28.3221 132.379 29.0869 132.379 29.9382C132.379 30.8493 132.592 31.6407 133.024 32.2991C133.45 32.9575 134.069 33.4696 134.867 33.8221C135.665 34.1745 136.616 34.3541 137.713 34.3541C138.531 34.3541 139.276 34.2477 139.948 34.0349C140.619 33.8221 141.225 33.4962 141.763 33.0572C141.943 32.9109 142.122 32.7447 142.295 32.5651V34.0216H146.206V23.966C146.206 22.8687 145.933 21.9044 145.381 21.0731C144.829 20.2418 144.064 19.5967 143.08 19.1311H143.073ZM141.577 29.6189C141.291 30.131 140.885 30.5367 140.36 30.836C139.841 31.1353 139.229 31.2816 138.544 31.2816C138.026 31.2816 137.587 31.1486 137.234 30.8892C136.882 30.6298 136.702 30.264 136.702 29.7985C136.702 29.2931 136.862 28.9073 137.174 28.6413C137.494 28.3687 137.946 28.1824 138.544 28.0694L142.009 27.4509V27.9297C142.009 28.5416 141.863 29.1069 141.577 29.6189Z" fill="#FFFFFF"/>
<path d="M160.764 19.4903C159.593 18.7853 158.276 18.4262 156.827 18.4262C155.709 18.4262 154.718 18.6324 153.854 19.0513C153.309 19.3174 152.843 19.6565 152.444 20.0556V12.873H148.254V34.0149H152.165V32.5585C152.643 33.0706 153.222 33.4829 153.907 33.7755C154.792 34.1546 155.756 34.3475 156.8 34.3475C158.29 34.3475 159.62 33.995 160.797 33.2834C161.967 32.5784 162.899 31.6141 163.577 30.4037C164.255 29.1933 164.594 27.8499 164.594 26.3802C164.594 24.9104 164.249 23.5471 163.564 22.3433C162.872 21.1396 161.941 20.1886 160.77 19.4836L160.764 19.4903ZM159.753 28.5682C159.42 29.2 158.955 29.6921 158.356 30.0512C157.758 30.4037 157.073 30.5833 156.288 30.5833C155.503 30.5833 154.878 30.4037 154.293 30.0512C153.708 29.6988 153.249 29.2066 152.923 28.5682C152.597 27.9364 152.437 27.2115 152.437 26.3868C152.437 25.5622 152.597 24.8439 152.923 24.2055C153.249 23.5737 153.708 23.0815 154.293 22.7224C154.878 22.3699 155.543 22.1904 156.288 22.1904C157.073 22.1904 157.758 22.3699 158.356 22.7357C158.955 23.1015 159.42 23.5936 159.753 24.2188C160.085 24.8439 160.258 25.5622 160.258 26.3868C160.258 27.2115 160.092 27.9297 159.753 28.5682Z" fill="#FFFFFF"/>
<path d="M174.843 18.5991H173.952C172.888 18.5991 171.97 18.8252 171.198 19.2841C170.613 19.6299 170.154 20.2152 169.815 21.0465V18.772H165.905V34.0216H170.094V25.8082C170.094 24.671 170.414 23.7931 171.045 23.168C171.677 22.5428 172.508 22.2303 173.533 22.2303H174.843V18.5991Z" fill="#FFFFFF"/>
<path d="M186.94 19.4637C185.71 18.772 184.34 18.4328 182.837 18.4328C181.334 18.4328 179.957 18.7787 178.713 19.4637C177.476 20.1553 176.485 21.093 175.754 22.2835C175.016 23.4739 174.65 24.8439 174.65 26.3868C174.65 27.9297 175.016 29.2798 175.754 30.4769C176.492 31.6806 177.476 32.625 178.713 33.31C179.95 34.0016 181.327 34.3408 182.837 34.3408C184.346 34.3408 185.716 33.995 186.94 33.31C188.17 32.6183 189.148 31.6739 189.886 30.4769C190.624 29.2731 190.99 27.9098 190.99 26.3868C190.99 24.8638 190.624 23.4739 189.886 22.2835C189.148 21.093 188.17 20.1487 186.94 19.4637ZM186.169 28.5682C185.843 29.2 185.397 29.6921 184.825 30.0512C184.26 30.4037 183.588 30.5833 182.83 30.5833C182.072 30.5833 181.393 30.4037 180.822 30.0512C180.243 29.6988 179.791 29.2066 179.465 28.5682C179.139 27.9364 178.979 27.2115 178.979 26.3868C178.979 25.5621 179.139 24.8439 179.465 24.2188C179.791 23.5936 180.243 23.1015 180.822 22.7357C181.4 22.3699 182.072 22.1904 182.83 22.1904C183.588 22.1904 184.26 22.3699 184.825 22.7357C185.39 23.1015 185.843 23.5936 186.169 24.2188C186.494 24.8439 186.661 25.5621 186.661 26.3868C186.661 27.2115 186.494 27.9297 186.169 28.5682Z" fill="#FFFFFF"/>
<path d="M199.975 25.1365L197.548 24.4116C197.175 24.2986 196.863 24.1788 196.61 24.0458C196.357 23.9128 196.178 23.7665 196.065 23.6003C195.952 23.434 195.898 23.2478 195.898 23.0416C195.898 22.6492 196.051 22.3433 196.357 22.1172C196.663 21.8911 197.089 21.7847 197.627 21.7847C198.372 21.7847 199.037 21.9775 199.623 22.3566C200.208 22.7357 200.614 23.2478 200.84 23.8796L203.939 22.4298C203.473 21.1662 202.675 20.1819 201.551 19.4836C200.427 18.7853 199.117 18.4328 197.627 18.4328C196.49 18.4328 195.486 18.6323 194.608 19.0314C193.73 19.4304 193.052 19.989 192.566 20.694C192.081 21.3989 191.842 22.2303 191.842 23.1813C191.842 24.2587 192.174 25.1964 192.846 25.9878C193.517 26.7792 194.475 27.3511 195.725 27.7036L198.326 28.4285C198.658 28.5216 198.938 28.6347 199.164 28.761C199.39 28.894 199.556 29.0337 199.669 29.1933C199.782 29.3529 199.835 29.5391 199.835 29.7653C199.835 30.1909 199.676 30.5301 199.363 30.7695C199.044 31.0089 198.592 31.1353 197.993 31.1353C197.175 31.1353 196.43 30.9025 195.759 30.437C195.087 29.9714 194.555 29.3263 194.169 28.5083L191.097 29.9581C191.542 31.3015 192.387 32.3656 193.624 33.157C194.861 33.9484 196.317 34.3408 197.993 34.3408C199.184 34.3408 200.221 34.1413 201.092 33.7422C201.97 33.3432 202.649 32.7912 203.147 32.0796C203.64 31.3747 203.886 30.5434 203.886 29.5923C203.886 28.495 203.553 27.5706 202.881 26.8124C202.21 26.0609 201.245 25.4956 199.975 25.1232V25.1365Z" fill="#FFFFFF"/>
<path d="M168.962 44.8225V37.8225H170.262V43.6325H173.232V44.8225H168.962ZM174.06 44.8225L176.745 37.8225H178.195L180.935 44.8225H179.47L178.875 43.2375H176.06L175.485 44.8225H174.06ZM176.38 42.1325H178.545L177.445 39.2925L176.38 42.1325ZM183.596 44.8225V39.0125H181.661V37.8225H186.836V39.0125H184.901V44.8225H183.596ZM187.566 44.8225L190.251 37.8225H191.701L194.441 44.8225H192.976L192.381 43.2375H189.566L188.991 44.8225H187.566ZM189.886 42.1325H192.051L190.951 39.2925L189.886 42.1325ZM195.807 44.8225V37.8225H197.062L199.852 42.3925L199.342 42.3975L202.017 37.8225H203.257V44.8225H201.992L202.012 39.5225L202.252 39.6075L199.992 43.3775H199.077L196.762 39.6075L196.977 39.5225L196.997 44.8225H195.807Z" fill="#cbd3e2ff"/>
<path d="M26.816 0.175781H26.8159C12.2723 0.175781 0.482422 11.9657 0.482422 26.5093V26.5094C0.482422 41.053 12.2723 52.8429 26.8159 52.8429H26.816C41.3596 52.8429 53.1495 41.053 53.1495 26.5094V26.5093C53.1495 11.9657 41.3596 0.175781 26.816 0.175781Z" fill="#148BEF"/>
<path d="M30.0273 34.2362H25.9188V26.8331C25.7531 27.0259 19.4823 34.319 19.5534 34.2362H16.0699V27.6056C15.736 28.0753 11.5252 33.9916 11.3518 34.2362H7.72852V20.5389H11.9199V26.3672L15.2728 21.6569C15.7723 20.9556 16.5797 20.5389 17.4403 20.5389C18.9103 20.5389 20.1021 21.7307 20.1021 23.2007V27.3119L25.1242 21.4693C25.6289 20.8818 26.3639 20.5441 27.1377 20.5428H27.3616C28.8329 20.5402 30.0273 21.732 30.0273 23.2033V34.2362Z" fill="white"/>
<path d="M44.9553 24.2734C44.3937 23.2395 43.6225 22.4281 42.6416 21.8393C41.6607 21.2506 40.5194 20.9568 39.2176 20.9568C38.6651 20.9568 38.1436 21.028 37.6531 21.1703C37.1627 21.3127 36.7175 21.5223 36.3164 21.7992C35.9152 22.0761 35.5814 22.4009 35.3135 22.7749H35.2333V15.4727H31.0872V27.8838C31.0872 29.3823 31.39 30.6918 31.9969 31.8163C32.6025 32.9395 33.4592 33.8053 34.5643 34.4109C35.6694 35.0165 36.9621 35.3206 38.4425 35.3206C39.6019 35.3206 40.6307 35.142 41.5326 34.7861C42.4333 34.4303 43.1993 33.9165 43.8334 33.2475C44.4662 32.5785 44.9528 31.7892 45.2918 30.8807C45.6308 29.971 45.8003 28.9811 45.8003 27.9122C45.8003 26.5211 45.5195 25.3086 44.9579 24.2747L44.9553 24.2734ZM41.1845 29.984C40.9257 30.5288 40.5647 30.9558 40.1014 31.2677C39.6382 31.5795 39.0856 31.7361 38.4425 31.7361C37.7993 31.7361 37.2429 31.5795 36.7706 31.2677C36.2983 30.9558 35.9372 30.5275 35.6875 29.984C35.4377 29.4405 35.3135 28.8297 35.3135 28.1516C35.3135 27.4736 35.4377 26.8679 35.6875 26.3322C35.9372 25.7978 36.2983 25.3733 36.7706 25.0615C37.2429 24.7496 37.8006 24.593 38.4425 24.593C39.0843 24.593 39.6369 24.7496 40.1014 25.0615C40.5647 25.3733 40.9257 25.7965 41.1845 26.3322C41.4433 26.8667 41.5727 27.4736 41.5727 28.1516C41.5727 28.8297 41.4433 29.4405 41.1845 29.984Z" fill="white"/>
</g>
<defs>
<clipPath id="clip0_2616_877">
<rect width="206" height="53" fill="white"/>
</clipPath>
</defs>
</svg>
