<svg width="96" height="96" viewBox="0 0 96 96" fill="none" xmlns="http://www.w3.org/2000/svg">
<path d="M14.1313 57.163C14.1313 60.4677 14.8554 62.9943 15.8017 64.5265C16.306 65.3988 17.0322 66.122 17.9066 66.6228C18.7809 67.1235 19.7722 67.3839 20.7798 67.3775C23.2133 67.3775 25.4394 66.7767 29.7295 60.8402C33.1664 56.0844 37.2162 49.424 39.9441 45.218L44.5587 38.1279C47.7642 33.2039 51.4685 27.7301 55.7286 24.0078C59.1985 20.9915 62.9448 19.3091 66.7152 19.3091C73.0452 19.3091 79.0748 22.9773 83.6894 29.8571C88.7395 37.3918 91.2001 46.8823 91.2001 56.6763C91.2001 62.4986 90.0524 66.7767 88.0996 70.1565C86.216 73.4251 82.5267 76.6908 76.3409 76.6908V67.3775C81.6374 67.3775 82.9503 62.5106 82.9503 56.9407C82.9503 49.0034 81.0997 40.1948 77.0229 33.9009C74.1297 29.4365 70.3804 26.7086 66.2555 26.7086C61.7942 26.7086 58.2041 30.0734 54.1693 36.0729C52.0243 39.2605 49.8221 43.145 47.3496 47.5283L44.6278 52.3351C39.16 62.0299 37.775 64.238 35.0411 67.8822C30.2583 74.2874 26.1665 76.6908 20.7798 76.6908C14.3897 76.6908 10.3489 73.9238 7.86141 69.7539C5.80348 66.3561 4.80005 61.8977 4.80005 56.8175L14.1313 57.163Z" fill="#0081FB"/>
<path d="M12.1575 30.515C16.4356 23.9206 22.6094 19.3091 29.6904 19.3091C33.7913 19.3091 37.8681 20.5108 42.1251 23.9988C46.7818 27.7992 51.7388 34.0571 57.9366 44.3708L60.1568 48.072C65.5164 57.0007 68.5688 61.5913 70.3503 63.7604C72.6456 66.5423 74.2559 67.3655 76.3408 67.3655C81.6374 67.3655 82.9503 62.4986 82.9503 56.9286L91.182 56.6703C91.182 62.4926 90.0343 66.7707 88.0816 70.1505C86.2159 73.4251 82.5267 76.6908 76.3408 76.6908C72.4954 76.6908 69.0885 75.8556 65.3212 72.3015C62.425 69.5736 59.0392 64.7277 56.4345 60.3715L48.6865 47.4291C44.7989 40.9339 41.2329 36.091 39.1689 33.9099C36.9458 31.5395 34.0947 28.6914 29.5402 28.6914C25.854 28.6914 22.7235 31.2781 20.1038 35.2348L12.1575 30.515Z" fill="url(#paint0_linear_1495_848)"/>
<path d="M29.5403 28.6914C25.854 28.6914 22.7236 31.2781 20.1038 35.2348C16.3996 40.8257 14.1313 49.1536 14.1313 57.163C14.1313 60.4677 14.8554 62.9943 15.8017 64.5265L7.84639 69.7539C5.80348 66.3561 4.80005 61.8977 4.80005 56.8175C4.80005 47.5793 7.33566 37.9506 12.1575 30.515C16.4356 23.9206 22.6094 19.3091 29.6905 19.3091L29.5403 28.6914Z" fill="url(#paint1_linear_1495_848)"/>
<defs>
<linearGradient id="paint0_linear_1495_848" x1="23.5287" y1="46.5128" x2="83.0133" y2="49.5171" gradientUnits="userSpaceOnUse">
<stop stop-color="#0064E1"/>
<stop offset="0.4" stop-color="#0064E1"/>
<stop offset="0.83" stop-color="#0073EE"/>
<stop offset="1" stop-color="#0082FB"/>
</linearGradient>
<linearGradient id="paint1_linear_1495_848" x1="17.2438" y1="61.0685" x2="17.2438" y2="39.1373" gradientUnits="userSpaceOnUse">
<stop stop-color="#0082FB"/>
<stop offset="1" stop-color="#0064E0"/>
</linearGradient>
</defs>
</svg>
