<svg width="146" height="146" viewBox="0 0 146 146" fill="none" xmlns="http://www.w3.org/2000/svg">
<rect width="146" height="146" fill="#E6F3FF"/>
<path d="M39.3313 81.8539C39.3313 85.1586 40.0553 87.6852 41.0017 89.2174C41.506 90.0897 42.2322 90.8129 43.1065 91.3137C43.9809 91.8145 44.9722 92.0749 45.9797 92.0684C48.4132 92.0684 50.6394 91.4676 54.9295 85.5311C58.3664 80.7754 62.4162 74.1149 65.144 69.9089L69.7586 62.8188C72.9642 57.8948 76.6684 52.421 80.9285 48.6987C84.3984 45.6824 88.1448 44 91.9151 44C98.2452 44 104.275 47.6682 108.889 54.548C113.939 62.0827 116.4 71.5733 116.4 81.3672C116.4 87.1895 115.252 91.4676 113.3 94.8474C111.416 98.116 107.727 101.382 101.541 101.382V92.0684C106.837 92.0684 108.15 87.2015 108.15 81.6316C108.15 73.6943 106.3 64.8857 102.223 58.5918C99.3297 54.1274 95.5804 51.3995 91.4555 51.3995C86.9941 51.3995 83.404 54.7643 79.3693 60.7639C77.2242 63.9514 75.0221 67.8359 72.5496 72.2192L69.8277 77.026C64.3599 86.7208 62.9749 88.929 60.2411 92.5732C55.4582 98.9783 51.3664 101.382 45.9797 101.382C39.5897 101.382 35.5489 98.6148 33.0614 94.4448C31.0034 91.047 30 86.5886 30 81.5084L39.3313 81.8539Z" fill="#0081FB"/>
<path d="M37.3574 55.206C41.6355 48.6116 47.8093 44 54.8904 44C58.9912 44 63.068 45.2017 67.3251 48.6897C71.9817 52.4901 76.9388 58.748 83.1366 69.0617L85.3568 72.763C90.7164 81.6917 93.7687 86.2822 95.5503 88.4513C97.8455 91.2333 99.4558 92.0564 101.541 92.0564C106.837 92.0564 108.15 87.1895 108.15 81.6196L116.382 81.3612C116.382 87.1835 115.234 91.4616 113.282 94.8414C111.416 98.116 107.727 101.382 101.541 101.382C97.6953 101.382 94.2885 100.547 90.5211 96.9924C87.625 94.2646 84.2392 89.4187 81.6345 85.0625L73.8864 72.12C69.9989 65.6248 66.4328 60.7819 64.3689 58.6008C62.1457 56.2304 59.2947 53.3824 54.7402 53.3824C51.0539 53.3824 47.9235 55.969 45.3037 59.9257L37.3574 55.206Z" fill="url(#paint0_linear_1495_848)"/>
<path d="M54.7402 53.3824C51.054 53.3824 47.9235 55.969 45.3038 59.9257C41.5995 65.5166 39.3313 73.8445 39.3313 81.8539C39.3313 85.1586 40.0553 87.6852 41.0017 89.2174L33.0463 94.4448C31.0034 91.047 30 86.5886 30 81.5084C30 72.2702 32.5356 62.6415 37.3575 55.206C41.6356 48.6116 47.8094 44 54.8904 44L54.7402 53.3824Z" fill="url(#paint1_linear_1495_848)"/>
<defs>
<linearGradient id="paint0_linear_1495_848" x1="48.7286" y1="71.2037" x2="108.213" y2="74.208" gradientUnits="userSpaceOnUse">
<stop stop-color="#0064E1"/>
<stop offset="0.4" stop-color="#0064E1"/>
<stop offset="0.83" stop-color="#0073EE"/>
<stop offset="1" stop-color="#0082FB"/>
</linearGradient>
<linearGradient id="paint1_linear_1495_848" x1="42.4437" y1="85.7595" x2="42.4437" y2="63.8282" gradientUnits="userSpaceOnUse">
<stop stop-color="#0082FB"/>
<stop offset="1" stop-color="#0064E0"/>
</linearGradient>
</defs>
</svg>
