<svg width="96" height="96" viewBox="0 0 96 96" fill="none" xmlns="http://www.w3.org/2000/svg">
<path fill-rule="evenodd" clip-rule="evenodd" d="M6.72713 65.7373L35.5594 16.0168C39.5264 9.17567 48.3126 6.83173 55.1837 10.7814C62.0549 14.7312 64.4091 23.4788 60.442 30.3199L31.6098 80.0405C27.6427 86.8816 18.8566 89.2256 11.9854 85.2758C5.1143 81.3261 2.76007 72.5784 6.72713 65.7373Z" fill="#FABC04"/>
<path fill-rule="evenodd" clip-rule="evenodd" d="M89.2731 65.5254C93.2401 72.3665 90.8859 81.1142 84.0148 85.0639C77.1436 89.0136 68.3575 86.6697 64.3904 79.8286L35.5582 30.108C31.5911 23.2669 33.9454 14.5192 40.8165 10.5695C47.6877 6.61982 56.4738 8.96375 60.4408 15.8049L89.2731 65.5254Z" fill="#3C8BD9"/>
<path fill-rule="evenodd" clip-rule="evenodd" d="M19.2596 58.7427C27.1937 58.7427 33.6255 65.1464 33.6255 73.0459C33.6255 80.9453 27.1937 87.349 19.2596 87.349C11.3254 87.349 4.89355 80.9453 4.89355 73.0459C4.89355 65.1464 11.3254 58.7427 19.2596 58.7427Z" fill="#34A852"/>
</svg>
